<?xml version="1.0" encoding="utf-8"?>
<!-- Generator: Adobe Illustrator 16.0.4, SVG Export Plug-In . SVG Version: 6.00 Build 0)  -->
<!DOCTYPE svg PUBLIC "-//W3C//DTD SVG 1.1//EN" "http://www.w3.org/Graphics/SVG/1.1/DTD/svg11.dtd">
<svg version="1.1" id="Layer_1" xmlns="http://www.w3.org/2000/svg" xmlns:xlink="http://www.w3.org/1999/xlink" x="0px" y="0px"
	 width="300px" height="300px" viewBox="0 0 300 300" enable-background="new 0 0 300 300" xml:space="preserve">
<g>
	<path fill="#FFB819" d="M247.701,182.488v-16.28c0-0.066-0.009-0.131-0.01-0.196c0.181-5.307-3.565-9.946-8.803-10.873
		c-13.123-2.321-39.389-6.962-65.034-11.466v6.091c0,7.471-4.384,13.956-12.027,17.791c-5.032,2.525-11.5,3.917-18.209,3.917
		c-4.472,0-11.052-0.616-17.003-3.553c-7.248-3.576-11.405-9.721-11.405-16.858c0,0,0-17.58-0.001-17.58
		c-3.471-0.585-6.933-1.396-10.472-1.396c-6.346,0-12.197,2.408-16.054,6.604c-3.302,3.592-18.319,24.241-22.979,30.499
		c-5.939,7.976-13.68,16.847-13.68,27.387c0,8.903,5.95,16.413,14.089,18.781c-8.139,2.37-14.089,9.881-14.089,18.784
		s5.951,16.413,14.09,18.782c-8.139,2.369-14.09,9.88-14.09,18.784c0,10.804,8.588,19.328,19.565,19.563
		c1.63,0.093,3.765-0.049,6.375-0.26c1.328-0.121,160.01-14.229,160.01-14.229c5.506-0.49,9.727-5.103,9.727-10.631v-14.693
		L95.256,265.013v-24.359l152.445-13.557v-20.249L95.256,220.404v-24.358L247.701,182.488z"/>
	<path fill="#FFB819" d="M123.743,123.332c0.856,0,1.715-0.17,2.285-0.475c0,0,0,16.087,0,28.204
		c0,13.633,37.578,13.111,37.578-1.297c0-14.409,0-57.221,0-57.224c0-5.403-1.488-8.297-8.875-7.668
		c-8.028,0.683-14.611,1.565-21.521,2.624c-6.524,1.001-8.99,4.175-9.468,10.064c-0.974,11.997-3.622,12.857-5.265,15.843
		c-0.546,0.981-0.65,1.33-0.648,1.328c-0.246,0.679-0.375,1.41-0.375,2.174C117.452,120.454,120.194,123.332,123.743,123.332z"/>
	<path fill="#FFB819" d="M141.48,75.674c0.46,0.042,0.922,0.075,1.389,0.094c-0.092-0.074-0.187-0.154-0.28-0.232
		c-2.512-2.089-5.524-5.55-6.39-10.585c-1.503-8.735,4.138-18.639,4.379-19.056c0.144-0.25,0.393-0.42,0.677-0.465
		c0.285-0.046,0.574,0.039,0.788,0.232c0.369,0.331,9.056,8.211,10.557,16.933c0.896,5.211-0.959,9.455-2.709,12.132
		c-0.112,0.172-0.225,0.338-0.335,0.497c0.936-0.193,1.849-0.438,2.742-0.723c9.634-3.082,16.537-11.365,16.537-21.111
		c0-9-7.229-14.866-14.373-20.324c-11.663-8.91-3.822-21.404-7.881-22.051c-4.705-0.748-27.429,16.804-27.429,42.375
		C119.152,64.997,128.942,74.538,141.48,75.674z"/>
</g>
</svg>
