<?xml version="1.0" encoding="utf-8"?>
<!-- Generator: Adobe Illustrator 16.0.4, SVG Export Plug-In . SVG Version: 6.00 Build 0)  -->
<!DOCTYPE svg PUBLIC "-//W3C//DTD SVG 1.1//EN" "http://www.w3.org/Graphics/SVG/1.1/DTD/svg11.dtd">
<svg version="1.1" id="Layer_1" xmlns="http://www.w3.org/2000/svg" xmlns:xlink="http://www.w3.org/1999/xlink" x="0px" y="0px"
	 width="300px" height="300px" viewBox="0 0 300 300" enable-background="new 0 0 300 300" xml:space="preserve">
<path fill="#FFB819" d="M153.132,124.872c-2.53,0.178-8.622,0.905-10.089-1.699c-0.73-1.3,0.004-3.537,3.963-5.284
	c2.887-1.276,6.122-1.959,9.559-2.04c0.898-0.02,1.511-0.709,1.366-1.597c-0.376-2.339-0.75-4.677-1.126-7.016
	c-0.144-0.885-0.988-1.625-1.886-1.578c-2.844,0.15-5.411,0.807-7.969,1.612c-0.856,0.271-1.822-0.171-2.162-1
	c-0.416-1.016-0.763-1.858-1.177-2.873c-0.342-0.83-1.284-1.213-2.109-0.854c-1.571,0.688-3.142,1.373-4.712,2.061
	c-0.824,0.361-1.215,1.324-0.874,2.157c0.501,1.224,0.905,2.207,1.406,3.43c0.341,0.831,0.017,1.918-0.678,2.486
	c-4.942,4.045-8.068,10.315-5.354,17.161c2.878,7.26,11.41,8.492,17.896,7.735c2.519-0.29,7.867-0.898,9.117,2.043
	c1.13,2.66-2.163,4.896-4.483,5.757c-3.577,1.33-7.275,2.16-11.48,2.086c-0.898-0.016-1.507,0.646-1.362,1.534
	c0.407,2.482,0.814,4.969,1.221,7.451c0.146,0.887,0.99,1.661,1.888,1.663c3.588,0.012,6.83-0.769,10.02-1.742
	c0.859-0.261,1.829,0.19,2.17,1.02c0.513,1.251,0.923,2.251,1.436,3.502c0.34,0.83,1.285,1.213,2.107,0.854
	c1.572-0.688,3.144-1.375,4.717-2.062c0.82-0.36,1.212-1.324,0.871-2.155c-0.61-1.488-1.083-2.642-1.695-4.132
	c-0.341-0.831-0.005-1.901,0.704-2.451c5.274-4.094,8.626-10.667,5.798-17.801C167.381,126,159.97,124.393,153.132,124.872z
	 M274.938,155.099c-10.936-26.662-21.872-53.326-32.805-79.99c-2.296-5.594-8.912-11.355-14.886-12.296
	c-74.196-11.679-119.823,49.969-194.017,38.288c-5.974-0.938-8.87,2.371-6.575,7.967c10.934,26.662,21.871,53.325,32.804,79.989
	c2.297,5.597,8.913,11.357,14.885,12.298c74.195,11.676,119.822-49.971,194.017-38.291
	C274.336,164.006,277.232,160.695,274.938,155.099z M165.779,168.615c-18.692,8.212-42.488-2.284-50.696-22.341
	c-8.443-20.628,1.897-42.445,20.731-50.723c18.691-8.216,42.491,2.286,50.697,22.341
	C194.951,138.52,184.616,160.343,165.779,168.615z M264.648,173.471c-73.824-11.233-119.404,50.023-193.388,38.378
	c-5.974-0.938-12.588-6.7-14.886-12.295c-8.61-21-17.224-41.999-25.836-62.998c-0.211-0.032-0.418-0.057-0.628-0.091
	c-5.975-0.938-8.871,2.371-6.575,7.966c10.934,26.663,21.872,53.326,32.805,79.989c2.296,5.596,8.912,11.356,14.884,12.297
	c74.196,11.677,119.822-49.969,194.017-38.289c5.973,0.942,8.869-2.369,6.576-7.965
	C269.293,184.799,266.971,179.136,264.648,173.471z"/>
</svg>
