<?xml version="1.0" standalone="no"?>
<!DOCTYPE svg PUBLIC "-//W3C//DTD SVG 1.1//EN" "http://www.w3.org/Graphics/SVG/1.1/DTD/svg11.dtd" >
<svg xmlns="http://www.w3.org/2000/svg">
<metadata>Generated by IcoMoon</metadata>
<defs>
<font id="icons" horiz-adv-x="1024">
<font-face units-per-em="1024" ascent="960" descent="-64" />
<missing-glyph horiz-adv-x="1024" />
<glyph unicode="&#x20;" horiz-adv-x="512" d="" />
<glyph unicode="&#x2b;" glyph-name="add" d="M810 384.667h-256v-256h-84v256h-256v84h256v256h84v-256h256v-84z" />
<glyph unicode="&#xd7;" glyph-name="close" d="M1014.662 137.34c-0.004 0.004-0.008 0.008-0.012 0.010l-310.644 310.65 310.644 310.65c0.004 0.004 0.008 0.006 0.012 0.010 3.344 3.346 5.762 7.254 7.312 11.416 4.246 11.376 1.824 24.682-7.324 33.83l-146.746 146.746c-9.148 9.146-22.45 11.566-33.828 7.32-4.16-1.55-8.070-3.968-11.418-7.31 0-0.004-0.004-0.006-0.008-0.010l-310.648-310.652-310.648 310.65c-0.004 0.004-0.006 0.006-0.010 0.010-3.346 3.342-7.254 5.76-11.414 7.31-11.38 4.248-24.682 1.826-33.83-7.32l-146.748-146.748c-9.148-9.148-11.568-22.452-7.322-33.828 1.552-4.16 3.97-8.072 7.312-11.416 0.004-0.002 0.006-0.006 0.010-0.010l310.65-310.648-310.65-310.652c-0.002-0.004-0.006-0.006-0.008-0.010-3.342-3.346-5.76-7.254-7.314-11.414-4.248-11.376-1.826-24.682 7.322-33.83l146.748-146.746c9.15-9.148 22.452-11.568 33.83-7.322 4.16 1.552 8.070 3.97 11.416 7.312 0.002 0.004 0.006 0.006 0.010 0.010l310.648 310.65 310.648-310.65c0.004-0.002 0.008-0.006 0.012-0.008 3.348-3.344 7.254-5.762 11.414-7.314 11.378-4.246 24.684-1.826 33.828 7.322l146.746 146.748c9.148 9.148 11.57 22.454 7.324 33.83-1.552 4.16-3.97 8.068-7.314 11.414z" />
<glyph unicode="&#xe5d4;" glyph-name="more_vert" d="M512 256.667c46 0 86-40 86-86s-40-86-86-86-86 40-86 86 40 86 86 86zM512 512.667c46 0 86-40 86-86s-40-86-86-86-86 40-86 86 40 86 86 86zM512 596.667c-46 0-86 40-86 86s40 86 86 86 86-40 86-86-40-86-86-86z" />
<glyph unicode="&#xe609;" glyph-name="cake" d="M845.485 337.106v55.558c0 0.222-0.007 0.423-0.007 0.677 0.583 18.102-12.161 33.936-30.051 37.103-44.803 7.916-134.439 23.776-221.997 39.092v-20.786c0-25.517-14.96-47.639-41.050-60.709-17.171-8.629-39.254-13.363-62.178-13.363-15.267 0-37.721 2.112-58.043 12.117-24.735 12.205-38.956 33.181-38.956 57.538 0 0 0 60.013-0.003 60.013-11.833 1.984-23.65 4.759-35.731 4.759-21.66 0-41.632-8.227-54.797-22.543-11.265-12.259-62.548-82.736-78.446-104.103-20.266-27.222-46.693-57.5-46.693-93.493 0-30.377 20.306-56.015 48.091-64.132-27.803-8.090-48.091-33.743-48.091-64.093s20.306-56.015 48.091-64.093c-27.803-8.090-48.091-33.743-48.091-64.093 0-36.866 29.309-65.99 66.772-66.772 5.567-0.307 12.849 0.172 21.762 0.876 4.544 0.397 546.157 48.57 546.157 48.57 18.774 1.67 33.204 17.414 33.204 36.287v50.143l-520.368-46.269v83.146l520.368 46.269v69.113l-520.368-46.269v83.146l520.368 46.269zM422.387 539.066c2.921 0 5.883 0.582 7.804 1.631 0 0 0-54.91 0-96.276 0-46.537 128.27-44.775 128.27 4.428s0 195.321 0 195.327c0 18.443-5.076 28.311-30.29 26.166-27.405-2.323-49.868-5.34-73.474-8.949-22.257-3.417-30.692-14.254-32.309-34.357-3.324-40.953-12.357-43.897-17.978-54.084-1.86-3.324-2.197-4.544-2.197-4.544-0.821-2.319-1.263-4.807-1.263-7.421-0.007-12.102 9.349-21.936 21.477-21.936zM482.934 701.73c1.591-0.142 3.152-0.253 4.751-0.327-0.327 0.253-0.635 0.546-0.934 0.77-8.57 7.139-18.877 18.948-21.792 36.131-5.127 29.808 14.112 63.621 14.96 65.045 0.512 0.857 1.312 1.434 2.319 1.591s1.98-0.007 2.731-0.77c1.26-1.11 30.915-28.004 36.055-57.77 3.034-17.787-3.314-32.277-9.247-41.418-0.396-0.583-0.754-1.153-1.153-1.697 3.196 0.662 6.311 1.492 9.36 2.474 32.895 10.521 56.42 38.795 56.42 72.086 0 30.719-24.684 50.735-49.044 69.376-39.843 30.402-13.050 73.055-26.902 75.276-16.057 2.563-93.629-57.378-93.629-144.633 0-39.625 33.426-72.182 76.22-76.063z" />
<glyph unicode="&#xe60a;" glyph-name="money" d="M523.404 539.488c-9.212-0.649-31.392-3.295-36.733 6.186-2.658 4.733 0.015 12.878 14.429 19.238 10.511 4.645 22.289 7.133 34.803 7.427 3.269 0.073 5.502 2.581 4.974 5.814-1.369 8.516-2.731 17.028-4.099 25.545-0.525 3.222-3.597 5.917-6.867 5.745-10.355-0.546-19.701-2.939-29.014-5.869-3.117-0.987-6.634 0.624-7.872 3.641-1.515 3.699-2.778 6.765-4.285 10.461-1.245 3.022-4.675 4.416-7.679 3.109-5.719-2.505-11.44-4.999-17.156-7.504-3.001-1.314-4.423-4.82-3.182-7.854 1.824-4.457 3.295-8.035 5.119-12.489 1.242-3.025 0.062-6.983-2.468-9.052-17.994-14.727-29.375-37.556-19.493-62.481 10.479-26.433 41.542-30.918 65.157-28.162 9.171 1.056 28.643 3.269 33.194-7.438 4.114-9.684-7.875-17.825-16.322-20.961-13.023-4.843-26.487-7.865-41.797-7.595-3.269 0.059-5.486-2.352-4.959-5.585 1.482-9.038 2.963-18.092 4.447-27.129 0.531-3.23 3.604-6.048 6.874-6.054 13.063-0.044 24.867 2.8 36.482 6.342 3.127 0.95 6.659-0.692 7.901-3.714 1.868-4.555 3.361-8.195 5.229-12.75 1.238-3.022 4.678-4.416 7.67-3.109 5.724 2.505 11.447 5.006 17.174 7.507 2.986 1.311 4.413 4.82 3.171 7.846-2.221 5.418-3.943 9.619-6.172 15.043-1.242 3.025-0.018 6.922 2.563 8.924 19.202 14.906 31.406 38.837 21.11 64.812-10.318 25.996-37.301 31.846-62.197 30.102zM966.885 429.435c-39.817 97.073-79.633 194.154-119.439 291.235-8.359 20.367-32.448 41.342-54.198 44.768-270.141 42.521-436.262-181.932-706.395-139.403-21.75 3.415-32.294-8.633-23.939-29.007 39.809-97.073 79.63-194.15 119.436-291.231 8.363-20.378 32.451-41.349 54.194-44.775 270.135-42.511 436.258 181.94 706.395 139.413 21.755-3.429 32.298 8.625 23.946 28.999zM569.45 380.225c-68.055-29.899-154.694 8.316-184.578 81.341-30.74 75.104 6.907 154.538 75.479 184.677 68.052 29.914 154.705-8.323 184.582-81.341 30.73-75.104-6.899-154.559-75.483-184.677zM929.421 362.545c-268.785 40.898-434.737-182.128-704.105-139.73-21.75 3.415-45.831 24.394-54.198 44.765-31.348 76.459-62.71 152.914-94.066 229.369-0.768 0.116-1.522 0.208-2.287 0.332-21.755 3.415-32.3-8.633-23.939-29.004 39.809-97.077 79.633-194.154 119.439-291.231 8.359-20.374 32.448-41.346 54.191-44.772 270.141-42.514 436.258 181.932 706.395 139.406 21.747-3.429 32.291 8.625 23.942 28.999-8.462 20.622-16.915 41.241-25.374 61.866z" />
<glyph unicode="&#xe900;" glyph-name="list" d="M224 192h-192c-17.696 0-32-14.304-32-32v-192c0-17.696 14.304-32 32-32h192c17.696 0 32 14.304 32 32v192c0 17.696-14.304 32-32 32zM192 32c0-17.696-14.304-32-32-32h-64c-17.696 0-32 14.304-32 32v64c0 17.696 14.304 32 32 32h64c17.696 0 32-14.304 32-32v-64zM992 128h-576c-17.696 0-32-14.304-32-32v-64c0-17.696 14.304-32 32-32h576c17.696 0 32 14.304 32 32v64c0 17.696-14.304 32-32 32zM992 512h-576c-17.696 0-32-14.304-32-32v-64c0-17.696 14.304-32 32-32h576c17.696 0 32 14.304 32 32v64c0 17.696-14.304 32-32 32zM224 960h-192c-17.696 0-32-14.304-32-32v-192c0-17.696 14.304-32 32-32h192c17.696 0 32 46.304 32 64v160c0 17.696-14.304 32-32 32zM192 800c0-17.696-14.304-32-32-32h-64c-17.696 0-32 14.304-32 32v64c0 17.696 14.304 32 32 32h64c17.696 0 32-14.304 32-32v-64zM224 576h-192c-17.696 0-32-14.304-32-32v-192c0-17.696 14.304-32 32-32h192c17.696 0 32 14.304 32 32v192c0 17.696-14.304 32-32 32zM192 416c0-17.696-14.304-32-32-32h-64c-17.696 0-32 14.304-32 32v64c0 17.696 14.304 32 32 32h64c17.696 0 32-14.304 32-32v-64zM992 896h-576c-17.696 0-32-14.304-32-32v-64c0-17.696 14.304-32 32-32h576c17.696 0 32 14.304 32 32v64c0 17.696-14.304 32-32 32z" />
<glyph unicode="&#xe901;" glyph-name="grid" d="M224 576h-192c-17.696 0-32-14.304-32-32v-192c0-17.696 14.304-32 32-32h192c17.696 0 32 14.304 32 32v192c0 17.696-14.304 32-32 32zM192 416c0-17.696-14.304-32-32-32h-64c-17.696 0-32 14.304-32 32v64c0 17.696 14.304 32 32 32h64c17.696 0 32-14.304 32-32v-64zM224 960h-192c-17.696 0-32-14.304-32-32v-192c0-17.696 14.304-32 32-32h192c17.696 0 32 46.304 32 64v160c0 17.696-14.304 32-32 32zM192 800c0-17.696-14.304-32-32-32h-64c-17.696 0-32 14.304-32 32v64c0 17.696 14.304 32 32 32h64c17.696 0 32-14.304 32-32v-64zM224 192h-192c-17.696 0-32-14.304-32-32v-192c0-17.696 14.304-32 32-32h192c17.696 0 32 14.304 32 32v192c0 17.696-14.304 32-32 32zM192 32c0-17.696-14.304-32-32-32h-64c-17.696 0-32 14.304-32 32v64c0 17.696 14.304 32 32 32h64c17.696 0 32-14.304 32-32v-64zM608 576h-192c-17.696 0-32-14.304-32-32v-192c0-17.696 14.304-32 32-32h192c17.696 0 32 14.304 32 32v192c0 17.696-14.304 32-32 32zM576 416c0-17.696-14.304-32-32-32h-64c-17.696 0-32 14.304-32 32v64c0 17.696 14.304 32 32 32h64c17.696 0 32-14.304 32-32v-64zM608 192h-192c-17.696 0-32-14.304-32-32v-192c0-17.696 14.304-32 32-32h192c17.696 0 32 14.304 32 32v192c0 17.696-14.304 32-32 32zM576 32c0-17.696-14.304-32-32-32h-64c-17.696 0-32 14.304-32 32v64c0 17.696 14.304 32 32 32h64c17.696 0 32-14.304 32-32v-64zM992 576h-192c-17.696 0-32-14.304-32-32v-192c0-17.696 14.304-32 32-32h192c17.696 0 32 14.304 32 32v192c0 17.696-14.304 32-32 32zM960 416c0-17.696-14.304-32-32-32h-64c-17.696 0-32 14.304-32 32v64c0 17.696 14.304 32 32 32h64c17.696 0 32-14.304 32-32v-64zM992 960h-192c-17.696 0-32-14.304-32-32v-192c0-17.696 14.304-32 32-32h192c17.696 0 32 46.304 32 64v160c0 17.696-14.304 32-32 32zM960 800c0-17.696-14.304-32-32-32h-64c-17.696 0-32 14.304-32 32v64c0 17.696 14.304 32 32 32h64c17.696 0 32-14.304 32-32v-64zM608 960h-192c-17.696 0-32-14.304-32-32v-192c0-17.696 14.304-32 32-32h192c17.696 0 32 46.304 32 64v160c0 17.696-14.304 32-32 32zM576 800c0-17.696-14.304-32-32-32h-64c-17.696 0-32 14.304-32 32v64c0 17.696 14.304 32 32 32h64c17.696 0 32-14.304 32-32v-64zM992 192h-192c-17.696 0-32-14.304-32-32v-192c0-17.696 14.304-32 32-32h192c17.696 0 32 14.304 32 32v192c0 17.696-14.304 32-32 32zM960 32c0-17.696-14.304-32-32-32h-64c-17.696 0-32 14.304-32 32v64c0 17.696 14.304 32 32 32h64c17.696 0 32-14.304 32-32v-64z" />
<glyph unicode="&#xe902;" glyph-name="arrows" d="M633.344 415.744c-4.096 0-7.68 0.512-10.752 1.536-2.56 1.536-8.192 11.264-8.704 17.92-1.024 27.648-1.024 54.784-1.024 83.456 0 10.752 0 21.504 0 32.256 0 5.632-4.608 10.24-10.24 10.24-18.432 0-44.032 0-72.704 0-36.864 0-78.848 0-118.784 0-56.832 0-96.256 0-120.32 0-37.376 0-75.264-1.024-112.128-1.536l-28.16-0.512c-9.216 0-22.016 12.288-22.016 20.48 0 63.488 0 130.56 0 198.656 0 9.216 11.776 21.504 21.504 21.504 49.664-0.512 126.464-1.024 202.24-1.536 71.68-0.512 142.336-1.024 188.928-1.024 7.168 0 14.848 0 22.016 0h39.424c5.632 0 10.24 4.608 10.24 10.24 0 11.264 0 22.016 0 33.28 0 27.648 0.512 53.76-0.512 80.896-0.512 11.264 4.608 18.432 10.24 20.48 5.632 1.536 9.728 2.56 13.312 2.56 6.144 0 11.264-2.048 15.872-6.656 55.808-56.832 113.152-114.176 168.96-169.472l44.032-44.032c6.144-6.144 12.8-11.776 18.944-17.408 9.216-7.68 14.336-16.896 14.336-26.112 0.512-9.728-4.608-19.456-13.824-28.672-33.28-32.256-66.56-65.536-98.816-97.792-16.896-16.896-33.792-33.792-50.688-50.688-6.656-6.656-13.312-13.312-19.968-19.968-21.504-21.504-43.52-44.032-66.56-64-2.048-2.048-7.68-4.096-14.848-4.096zM658.432 524.8c0-4.096 2.56-7.68 6.144-9.728 1.024-0.512 2.56-0.512 4.096-0.512 2.56 0 5.12 1.024 7.168 3.072l152.576 154.624c4.096 4.096 4.096 10.24 0 14.336l-153.088 155.648c-2.048 2.048-4.608 3.072-7.168 3.072-1.536 0-2.56 0-4.096-0.512-4.096-1.536-6.144-5.12-6.144-9.728v-82.432h-470.016c-5.632 0-10.24-4.608-10.24-10.24v-126.464c0-5.632 4.608-10.24 10.24-10.24h470.528v-80.896zM390.144-43.52c-6.144 0-11.264 2.048-15.872 6.656-55.808 56.832-113.152 113.664-168.448 168.96l-44.544 44.544c-6.144 6.144-12.8 11.776-18.944 17.408-9.216 7.68-14.336 16.896-14.336 26.112-0.512 9.728 4.608 19.456 13.824 28.672 33.28 32.256 66.56 65.536 98.816 97.792 16.896 16.896 33.792 33.792 50.688 50.688 6.656 6.656 13.312 13.312 19.968 19.968 21.504 21.504 43.52 44.032 66.56 64 2.048 2.048 7.68 3.584 15.36 3.584 4.096 0 7.68-0.512 10.752-1.536 2.56-1.536 8.192-11.264 8.704-17.92 1.024-27.648 1.024-54.784 1.024-83.456 0-10.752 0-21.504 0-32.256 0-5.632 4.608-10.24 10.24-10.24 18.432 0 44.032 0 72.704 0 36.864 0 78.848 0 118.784 0 56.832 0 96.256 0 120.32 0 37.376 0 75.264 1.024 111.616 1.536l28.672 0.512c9.216 0 22.016-12.288 22.016-20.48 0-63.488 0-130.56 0-198.656 0-9.216-11.776-21.504-21.504-21.504-49.664 0.512-126.464 1.024-202.752 1.024-71.68 0.512-142.336 1.024-188.928 1.024-7.68 0-14.848 0-22.528 0h-39.424c-5.632 0-10.24-4.608-10.24-10.24 0-11.264 0-22.016 0-33.28 0-27.648-0.512-53.76 0.512-80.896 0.512-11.264-4.608-18.432-10.24-20.48-4.608-1.024-8.704-1.536-12.8-1.536zM357.888 386.048c-2.56 0-5.12-1.024-7.168-3.072l-152.576-154.624c-4.096-4.096-4.096-10.24 0-14.336l153.088-155.648c2.048-2.048 4.608-3.072 7.168-3.072 1.536 0 2.56 0 4.096 0.512 4.096 1.536 6.144 5.12 6.144 9.728v82.432h469.504c5.632 0 10.24 4.608 10.24 10.24v126.464c0 5.632-4.608 10.24-10.24 10.24h-470.016v80.384c0 4.096-2.56 7.68-6.144 9.728-1.536 0.512-2.56 1.024-4.096 1.024z" />
<glyph unicode="&#xe903;" glyph-name="bank" d="M72.192-43.52c-28.672 0-51.712 23.552-51.712 52.224 0 10.24 0 20.48 0 31.232 0 21.504 0 42.496 0 64 0 20.992 13.312 40.96 33.28 48.64 5.632 2.048 12.288 3.072 18.944 3.584 7.168 0 14.336 0.512 23.552 0.512 5.632 0 10.752 0 16.384 0s10.752 0 16.384 0h6.656c5.632 0 10.24 4.608 10.24 10.24v374.784c0 5.632-4.608 10.24-10.24 10.24 0 0-12.288 0-14.848 0h-24.576c-10.752 0-23.552 0-36.352 1.024-15.872 1.024-26.624 6.656-33.792 17.408-7.168 11.264-7.168 22.016-0.512 34.816 5.632 10.752 15.36 18.432 24.576 25.088 11.776 8.704 57.856 41.984 69.632 50.688 9.216 6.656 18.944 13.824 28.16 20.48s18.944 13.824 28.16 20.48c10.24 7.168 19.968 14.336 30.208 22.016 12.8 9.216 25.6 18.432 38.4 27.648 11.776 8.704 23.552 16.896 35.328 25.088 9.216 6.656 18.432 13.312 27.648 19.968 16.384 11.776 32.256 23.552 48.64 35.328l30.208 22.016c16.896 12.288 33.792 24.576 50.688 36.864l2.56 1.536c8.704 6.144 16.896 12.288 25.6 16.896 12.8 6.656 27.648 10.24 45.568 10.24 4.608 0 8.704 0 13.824-0.512 14.848-1.536 28.672-5.632 39.936-12.8 8.192-5.12 16.384-10.752 24.576-16.896l6.656-4.608c19.456-13.824 38.912-28.16 58.368-41.984 0 0 84.48-61.44 101.888-74.24 10.752-7.68 21.504-15.872 32.256-23.552 15.872-11.264 31.744-23.040 47.616-34.816 11.776-8.704 23.552-17.408 35.84-26.112 12.288-9.216 25.088-18.432 37.888-27.648 9.728-7.168 19.456-14.336 29.696-20.992 12.8-9.216 25.6-18.432 38.4-27.648 13.312-9.728 20.992-19.456 24.064-30.72 4.608-14.848-3.072-31.232-17.408-37.888-9.728-4.608-19.456-6.656-30.208-6.656-9.728 0-66.048 0-66.048 0-5.632 0-10.24-4.608-10.24-10.24v-375.808c0-5.632 4.096-9.728 9.728-10.24h1.536c1.536 0 2.56 0 4.096 0h57.856c27.136 0 50.688-22.528 51.2-49.664 0.512-30.208 1.024-65.536 0-99.84-0.512-20.992-11.264-35.84-32.256-45.568-5.632-2.56-11.776-3.584-19.968-3.584l-878.080-1.024zM73.216 113.152c-5.632 0-10.24-4.608-10.24-10.24v-93.696c0-5.632 4.608-10.24 10.24-10.24h877.568c5.632 0 10.24 4.608 10.24 10.24v93.696c0 5.632-4.608 10.24-10.24 10.24h-877.568zM370.688 551.936c-5.632 0-10.24-4.608-10.24-10.24v-285.696c0-28.16 0-56.32 0-84.48 0-3.072 0.512-8.192 4.096-11.776s8.704-4.096 11.776-4.096c17.408 0 35.328 0 52.736 0h46.080c1.536 0 2.56 0 4.096 0h1.536c5.632 0.512 9.728 4.608 9.728 10.24v375.808c0 5.632-4.608 10.24-10.24 10.24h-109.568zM543.744 551.936c-5.632 0-10.24-4.608-10.24-10.24v-375.808c0-5.632 4.608-10.24 10.24-10.24h109.056c5.632 0 10.24 4.608 10.24 10.24v375.808c0 5.632-4.608 10.24-10.24 10.24h-109.056zM715.776 551.936c-5.632 0-10.24-4.608-10.24-10.24v-375.808c0-5.632 4.608-10.24 10.24-10.24h109.056c5.632 0 10.24 4.608 10.24 10.24v375.808c0 5.632-4.608 10.24-10.24 10.24h-109.056zM198.656 551.936c-5.632 0-10.24-4.608-10.24-10.24v-375.808c0-5.632 4.608-10.24 10.24-10.24h109.056c5.632 0 10.24 4.608 10.24 10.24v375.808c0 5.632-4.608 10.24-10.24 10.24h-109.056zM512.512 897.536c-10.24 0-19.968-2.56-29.696-7.68-11.264-5.632-21.504-13.312-30.72-20.48-3.072-2.56-6.656-5.12-9.728-7.168-18.432-13.312-36.352-26.624-54.784-39.936-17.92-13.312-36.352-26.624-54.272-39.424-17.408-12.8-35.328-25.6-53.248-38.4-15.872-11.264-31.744-22.528-47.104-34.304-22.016-15.872-44.032-31.744-65.536-47.616l-68.096-49.664c-3.584-2.56-5.12-7.168-3.584-11.264s5.12-7.168 9.728-7.168h814.080c4.608 0 8.192 3.072 9.728 7.168s0 8.704-3.584 11.264l-14.848 10.752c-10.752 7.68-20.992 15.36-30.72 22.528-11.776 8.704-23.552 17.408-35.84 25.6-12.8 9.216-26.112 18.944-38.912 28.16-17.92 12.8-35.84 26.112-53.76 38.912-14.848 10.752-29.696 21.504-45.056 32.768-20.992 15.36-42.496 30.72-63.488 46.080l-16.384 11.776c-7.68 5.632-15.36 11.264-23.040 16.896-17.92 13.312-36.864 27.136-55.808 39.936-11.264 7.68-23.040 11.264-35.328 11.264z" />
<glyph unicode="&#xe904;" glyph-name="bill" d="M98.816-45.568c-29.696 0-31.744 2.048-31.744 30.72 0 44.544 0 89.088 0 133.12 0 116.736 0 237.568-0.512 356.352 0 16.896 5.632 27.648 20.48 36.864 21.504 13.824 47.104 30.208 73.216 44.032 20.48 10.752 29.184 25.6 29.184 48.64-1.024 88.064-1.024 169.472 0 248.32 0.512 35.328 6.144 61.952 33.792 76.8 11.264 6.144 25.088 9.728 37.376 9.728 84.992 0.512 172.032 0.512 256 0.512 77.824 0 158.72 0 238.080 0.512 16.896 0 34.816-8.192 48.128-22.016 12.288-12.288 18.432-28.16 17.92-43.52-2.048-54.272-1.536-109.568-1.536-162.816 0-34.304 0.512-69.632 0-104.448-0.512-22.016 7.68-36.352 25.6-47.104 24.576-13.824 50.176-29.184 80.896-48.128 15.36-9.728 21.504-20.48 21.504-38.4-0.512-119.296-0.512-241.152-0.512-358.4 0-43.008 0-85.504 0-128.512 0-30.208-2.048-32.256-32.768-32.256-60.416 0-407.552 0-407.552 0s-220.672 0-221.184 0c-61.952 0-124.416 0-186.368 0zM506.88 293.376c-2.56 0-4.608-1.024-6.656-2.56l-333.312-279.552c-3.072-2.56-4.608-7.168-3.072-11.264s5.12-6.656 9.728-6.656h667.136c4.096 0 8.192 2.56 9.728 6.656s0 8.704-3.072 11.264l-333.824 279.552c-2.048 2.048-4.608 2.56-6.656 2.56zM122.368 417.792c-1.536 0-3.072-0.512-4.608-1.024-3.584-1.536-5.632-5.12-5.632-9.216v-364.544c0-4.096 2.56-7.68 6.144-9.216 1.536-0.512 3.072-1.024 4.096-1.024 2.56 0 4.608 1.024 6.656 2.56l234.496 196.608c2.56 2.048 3.584 5.12 3.584 8.192s-1.536 6.144-4.096 7.68l-234.496 167.424c-1.536 1.536-4.096 2.56-6.144 2.56zM890.88 417.28c-2.048 0-4.096-0.512-6.144-2.048l-234.496-167.424c-2.56-2.048-4.096-4.608-4.096-7.68s1.024-6.144 3.584-8.192l234.496-196.608c2.048-1.536 4.096-2.56 6.656-2.56 1.536 0 3.072 0.512 4.096 1.024 3.584 1.536 6.144 5.12 6.144 9.216v364.032c0 3.584-2.048 7.168-5.632 9.216-1.536 1.024-3.072 1.024-4.608 1.024zM506.88 347.136c10.752 0 21.504-5.632 31.744-16.896 12.8-13.824 26.112-26.112 40.448-39.424 6.144-5.632 12.288-11.264 18.944-17.408 2.048-2.048 4.608-2.56 7.168-2.56 2.048 0 4.096 0.512 6.144 2.048 13.312 9.728 26.624 18.944 39.424 28.16 40.96 29.184 79.872 56.832 118.272 86.016 9.728 7.168 17.408 21.504 17.408 33.28 0.512 89.6 0.512 181.248 0.512 269.312 0 57.344 0 114.688 0 172.544 0 14.336-3.072 24.064-10.24 31.232-6.656 6.656-16.384 9.728-29.184 9.728-79.872 0-160.256 0-240.128 0-80.384 0-161.28 0-241.664 0-13.312 0-23.040-3.072-29.696-9.728s-10.24-16.896-10.24-30.72c0-65.536 0-131.584 0-197.12 0-80.384 0-162.816 0.512-244.736 0-9.728 4.608-23.040 13.312-29.696 50.176-37.888 99.84-74.752 147.968-108.544 4.608-3.072 10.24-3.584 14.336-3.584 6.144 0 14.848 1.536 20.48 6.144 12.8 10.24 24.576 21.504 35.84 32.256 6.144 6.144 12.288 11.776 18.944 17.408 10.24 7.68 20.48 12.288 29.696 12.288zM396.8 769.024c67.072-13.312 68.096-9.728 56.832-45.568-1.024-2.56-3.072-6.144-5.632-6.144-13.824 0-31.744 6.144-45.568 6.656-11.776 0.512-20.992-1.536-30.72-5.12-7.68-3.072-19.968-13.312-20.992-21.504s7.168-21.504 14.848-26.112c23.552-13.312 49.152-23.040 72.704-35.328 48.64-25.088 45.056-101.888-6.656-125.952-18.432-8.704-42.496-12.8-36.352-44.032 0-2.56 0.512-10.24-3.072-10.752-4.096-0.512-12.8 0-16.896 0-10.24-0.512-7.68 8.192-8.704 8.192 3.584 30.208-15.36 31.232-36.864 36.864-5.632 1.536-12.8 4.096-20.48 5.632-6.656 1.536-12.8 3.584-20.48 6.144-3.584 2.048-4.608 4.608-3.584 7.68 1.536 6.656 4.096 25.088 5.12 30.72 1.024 4.096 3.584 3.072 7.168 3.072 27.136-5.12 51.2-9.216 75.264-13.824 20.992-3.584 37.888 5.12 43.52 25.088 5.632 19.456-6.656 32.256-25.088 40.448-24.576 10.752-49.152 22.016-72.192 35.84-26.624 16.896-28.672 44.032-23.040 72.192 5.12 25.088 22.528 38.4 46.592 44.544 11.776 3.072 24.064 4.608 22.016 23.040-0.512 3.584 1.024 11.776 4.096 15.36 2.048 2.56 4.096 3.584 7.68 3.584 7.168 0 11.264-0.512 14.848-4.096 2.56-2.56 4.096-11.264 4.096-15.36 1.024-2.56 1.024-7.68 1.536-11.264zM377.344 465.408c2.048 33.28-20.48 38.4-38.4 43.008-2.048 0.512-4.096 1.024-6.144 1.536s-4.608 1.536-7.168 2.048c-4.096 1.024-8.704 2.56-13.824 3.584-4.096 1.024-8.192 2.048-12.8 3.584-1.024 0.512-2.048 0.512-3.072 1.024 0.512 3.584 1.536 8.704 2.048 13.824 0.512 3.072 1.024 6.144 1.536 9.216 7.168-1.536 14.336-2.56 20.992-3.584 17.408-3.072 34.304-6.144 51.2-9.216 3.584-0.512 7.168-1.024 10.752-1.024 22.016 0 38.4 12.288 44.032 33.28 3.584 12.8 4.608 36.864-30.72 52.224l-0.512 0.512c-23.552 10.24-48.128 21.504-70.144 34.816-18.944 11.776-24.576 30.72-18.432 61.44 4.096 18.944 16.384 30.72 38.912 36.864l2.56 0.512c10.24 2.56 29.696 7.68 27.136 33.28 0 1.536 1.024 6.656 2.048 7.68v0c5.12 0 6.144-0.512 7.168-1.024 0.512-1.536 1.536-6.144 1.536-7.68-0.512-4.608-0.512-10.24 0.512-14.848 1.024-4.096 4.096-7.168 8.192-7.68 6.144-1.024 11.776-2.048 16.384-3.072 18.944-3.584 34.816-6.656 37.376-9.728 0.512-2.048-2.048-10.24-4.608-18.432-5.632 0.512-11.776 2.048-18.432 3.072-7.68 1.536-15.872 3.072-23.040 3.584-1.536 0-3.072 0-4.096 0-10.24 0-19.968-2.048-30.72-6.144-8.704-3.584-25.6-15.872-27.136-29.696-1.536-13.312 9.216-30.208 19.968-36.352 14.336-8.192 29.184-14.848 43.52-21.504 9.728-4.608 19.968-9.216 29.184-13.824 18.432-9.728 29.184-28.672 28.672-51.712-0.512-24.576-13.824-46.080-34.816-55.808-2.56-1.024-5.12-2.048-7.68-3.072-16.384-6.656-40.448-16.896-34.816-50.688 0 0-6.656 0-7.168 0zM694.784 744.96c-1.536 0-3.072 0-4.608 0 0 0-0.512 0-0.512 0l-23.552 0.512h-10.752c-9.728 0-19.968 0-29.696 0-18.944 0-34.304 0-48.128 0.512h-1.536c-1.536 0-3.072 0-4.608 0s-2.56 0-4.096 0c-4.608 0-5.632 0.512-5.632 1.024v0c0 0-0.512 1.024-0.512 5.12 0 5.632 0.512 6.144 8.192 6.144 1.024 0 3.072 0 3.584 0s1.024 0 1.536 0c1.536 0 3.072 0 4.608 0 8.192 0 16.384-0.512 24.064-0.512 12.8 0 25.088 0 37.888 0h10.24c10.752 0 22.016 0 32.768 0h3.072c1.536 0 3.072 0 4.608 0s2.56 0 4.096 0 4.096 0 5.632-0.512c0.512 0 1.024 0 1.536 0 3.584 0 4.608-0.512 4.608-0.512v0c0 0 0.512-1.024 0.512-5.12 0-3.072-0.512-4.608-0.512-5.12 0 0 0 0 0 0-1.024-0.512-3.584-0.512-8.192-1.024-0.512 0-0.512 0-1.024 0-1.536-0.512-2.56-0.512-3.584-0.512zM694.784 675.84c-1.536 0-3.072 0-4.608 0 0 0-0.512 0-0.512 0l-23.552 0.512h-10.752c-9.728 0-19.456 0-29.696 0-18.944 0-34.304 0-48.128 0.512h-1.536c-1.536 0-3.072 0-4.608 0s-2.56 0-4.096 0c-4.608 0-5.632 0.512-5.632 1.024v0c0 0-0.512 1.024-0.512 5.12 0 5.632 0.512 6.144 8.192 6.144 1.024 0 3.072 0 3.584 0s1.024 0 1.536 0c1.536 0 3.072 0 4.608 0 8.192 0 16.384-0.512 24.064-0.512h1.536c12.288 0 24.576 0 36.864 0h10.24c10.752 0 22.016 0 32.768 0h3.072c1.536 0 3.072 0 4.608 0s2.56 0 4.096 0 4.096 0 5.632-0.512c0.512 0 1.024 0 1.536 0 3.584 0 4.608-0.512 4.608-0.512v0c0 0 0.512-1.024 0.512-5.12 0-3.072-0.512-4.608-0.512-5.12 0 0 0 0 0 0-1.024-0.512-3.584-0.512-8.192-1.024-0.512 0-0.512 0-1.024 0-2.048-0.512-3.072-0.512-4.096-0.512zM694.784 607.232c-1.536 0-3.072 0-4.608 0 0 0-0.512 0-0.512 0l-23.552 0.512h-10.752c-9.728 0-19.968 0-29.696 0-18.944 0-34.304 0-48.128 0.512h-1.536c-1.536 0-3.072 0-4.608 0s-2.56 0-4.096 0c-4.608 0-5.632 0.512-5.632 1.024v0c0 0-0.512 1.024-0.512 5.12 0 5.632 0.512 6.144 8.192 6.144 1.024 0 3.072 0 3.584 0s1.024 0 1.536 0c1.536 0 3.072 0 4.608 0 8.192 0 16.384-0.512 24.064-0.512 12.8 0 25.088 0 37.888 0h10.24c11.264 0 22.016 0 33.28 0h2.56c1.536 0 3.072 0 4.608 0s2.56 0 4.096 0 4.096 0 5.632-0.512c0.512 0 1.024 0 1.536 0 3.584 0 4.608-0.512 4.608-0.512v0c0 0 0.512-1.024 0.512-5.12 0-3.072-0.512-4.608-0.512-5.12 0 0 0 0 0 0-1.024-0.512-3.584-0.512-8.192-1.024-0.512 0-0.512 0-1.024 0-1.536-0.512-2.56-0.512-3.584-0.512zM694.784 538.112c-1.536 0-3.072 0-4.608 0 0 0-0.512 0-0.512 0l-23.552 0.512h-10.752c-9.728 0-19.968 0-29.696 0-18.944 0-34.304 0-48.128 0.512h-1.536c-1.536 0-3.072 0-4.608 0s-2.56 0-4.096 0c-4.608 0-5.632 0.512-5.632 1.024v0c0 0-0.512 1.024-0.512 5.12 0 5.632 0.512 6.144 8.192 6.144 1.024 0 3.072 0 3.584 0s1.024 0 1.536 0c1.536 0 3.072 0 4.608 0 8.192 0 16.384-0.512 24.064-0.512 12.8 0 25.088 0 37.888 0h10.24c10.752 0 22.016 0 32.768 0h3.072c1.536 0 3.072 0 4.608 0s2.56 0 4.096 0 4.096 0 5.632-0.512c0.512 0 1.024 0 1.536 0 3.584 0 4.608-0.512 4.608-0.512v0c0 0 0.512-1.024 0.512-5.12 0-3.072-0.512-4.608-0.512-5.12 0 0 0 0 0 0-1.024-0.512-3.584-0.512-8.192-1.024-0.512 0-0.512 0-1.024 0-1.536-0.512-2.56-0.512-3.584-0.512z" />
<glyph unicode="&#xe905;" glyph-name="cog" d="M509.44-42.496c-19.968 0-40.448 0-60.416 0-23.552 0-43.52 17.408-47.616 41.472-3.584 21.504-7.68 44.544-11.264 67.584-0.512 3.584-1.024 4.608-5.12 6.144-15.36 5.632-31.744 12.8-53.248 22.016-1.024 0.512-2.048 1.024-2.56 1.024s-1.024 0-2.56-1.024c-16.896-12.288-34.816-25.088-51.712-36.864l-3.584-2.56c-9.728-7.168-20.48-10.752-31.232-10.752-12.8 0-24.576 5.12-34.304 14.848-27.648 26.624-55.808 54.784-83.456 83.456-17.92 18.432-19.456 43.008-4.608 64.512 14.848 20.992 27.136 38.912 39.424 55.296 2.048 2.56 2.048 3.584 0.512 7.68-8.192 18.432-15.36 35.328-21.504 51.712-1.536 3.584-2.56 4.608-6.144 5.12-12.8 2.048-26.112 4.096-38.912 6.656-9.728 1.536-18.944 3.072-28.672 4.608-24.064 4.096-41.472 24.064-41.472 47.616-0.512 37.376-0.512 76.288 0 120.32 0 23.552 17.408 44.032 41.472 48.128l3.584 0.512c20.48 3.584 41.984 7.168 63.488 10.24 4.096 0.512 5.632 2.048 7.168 6.144 6.656 17.408 13.824 34.304 21.504 51.712 1.536 3.072 1.024 3.584-0.512 5.632-11.776 15.872-23.552 32.768-38.912 54.784-16.896 23.552-14.848 48.128 5.632 68.608 26.112 26.112 52.736 53.248 79.36 79.36 10.752 10.752 23.552 15.872 36.864 15.872 10.752 0 21.504-3.584 31.232-10.752 18.432-12.8 36.352-25.6 54.272-38.4 2.048-1.536 3.072-1.536 3.584-1.536 1.024 0 2.048 0.512 3.072 1.024 17.92 7.68 35.328 15.36 52.736 21.504 3.584 1.536 4.608 2.56 5.12 6.144 2.048 13.312 4.608 27.136 6.656 40.448 1.536 9.216 3.072 17.92 4.608 27.136 3.584 23.552 24.064 41.472 47.616 41.472 19.456 0 39.424 0 58.88 0 20.48 0 40.96 0 60.928 0 23.552 0 43.52-17.408 47.616-41.472 4.608-26.112 8.192-47.616 11.264-67.072 0.512-4.096 2.048-5.632 6.144-7.168 17.92-6.656 35.328-14.336 51.712-21.504 1.536-0.512 2.048-1.024 3.072-1.024 0.512 0 1.024 0 2.56 1.024 11.264 8.192 23.040 16.896 34.816 25.088 6.656 5.12 13.824 9.728 20.48 14.848 9.728 7.168 20.48 10.752 31.232 10.752 12.288 0 24.064-5.12 33.792-14.336 27.136-26.112 55.296-54.272 86.016-86.016 15.36-15.872 16.896-41.472 3.584-60.928-13.312-18.944-27.136-38.4-40.96-57.344-1.536-2.048-1.536-3.072-0.512-6.144 8.704-20.48 15.872-36.864 21.504-52.736 1.536-3.584 2.56-4.608 5.632-5.12 13.312-2.048 26.624-4.096 39.936-6.656 9.216-1.536 18.432-3.072 27.648-4.608 24.064-4.096 41.472-24.064 41.472-47.616 0.512-37.888 0.512-77.312 0-120.32 0-24.064-17.92-44.032-41.984-48.128-7.68-1.536-15.872-2.56-23.552-4.096-14.848-2.56-29.184-5.12-44.032-7.168-3.072-0.512-4.096-1.024-5.12-4.608-6.656-16.896-13.824-34.816-22.016-53.248-1.024-3.072-1.024-3.584 0.512-6.144 15.36-20.992 28.672-39.936 40.96-57.344 13.824-19.968 11.264-45.568-5.632-62.976-19.456-19.456-38.912-38.912-57.856-58.368l-25.088-25.088c-9.728-9.728-21.504-13.824-40.448-14.336 0 0 0 0 0 0-0.512 0-1.024 0-2.048 0.512s-2.56 1.024-4.096 1.536c-5.12 1.536-11.776 3.584-17.92 7.68-16.896 10.752-32.768 22.528-48.64 34.304l-8.192 6.144c-1.536 1.024-2.56 1.024-3.072 1.024s-1.536 0-2.56-1.024c-15.36-6.656-34.304-14.848-53.248-22.016-3.584-1.536-4.096-2.56-4.608-6.144-2.048-12.8-4.096-25.6-6.144-38.4-1.536-9.728-3.072-18.944-4.608-28.672-4.096-24.064-24.064-41.984-47.616-41.984-19.968 0-39.936 0-59.904 0zM327.168 141.312c3.584 0 7.68-1.024 12.288-3.072 26.112-11.264 50.176-20.992 72.704-30.208 10.24-4.096 15.36-10.24 16.896-19.968 2.56-15.36 5.12-30.72 7.68-46.080 1.536-9.728 3.072-19.456 4.608-29.184 2.048-11.776 3.584-13.312 15.36-13.312h105.984c10.752 0 12.288 1.536 14.336 12.288 1.536 9.216 3.072 18.432 4.608 27.136 2.56 16.384 5.632 32.768 8.192 49.152 1.536 9.728 6.656 15.872 16.896 19.968 23.040 9.216 46.592 18.944 72.704 30.208 4.608 2.048 8.704 3.072 12.288 3.072 5.12 0 9.728-1.536 14.848-5.12 16.384-11.776 32.768-23.552 48.64-34.816l15.36-10.752c3.584-2.56 6.144-4.096 8.192-4.096v0c2.048 0 4.608 1.536 8.192 5.12 25.6 25.6 51.2 51.2 76.8 76.8 6.656 6.656 7.168 8.704 1.536 16.896l-10.24 14.336c-11.776 16.384-23.552 33.28-35.328 49.664-7.68 10.24-4.608 19.968-2.048 26.112 11.776 27.136 21.504 51.2 30.208 73.216 3.584 9.728 10.24 14.848 19.456 16.384 15.36 2.56 30.72 5.12 46.592 7.68 9.728 1.536 19.968 3.584 29.696 5.12 11.264 2.048 12.8 3.584 12.8 14.848v104.96c0 11.776-1.024 13.312-12.8 15.36-10.24 1.536-20.992 3.584-31.232 5.12-14.848 2.56-29.696 5.12-45.056 7.168-9.216 1.536-15.872 6.656-19.456 16.384-9.728 25.088-19.968 49.152-30.208 72.704-4.608 10.752-4.096 18.944 2.56 27.648 15.36 20.992 30.208 41.984 45.568 63.488 1.536 2.048 2.56 4.096 3.584 6.656 0.512 0.512 0.512 1.024 1.024 1.536-0.512 0.512-0.512 1.024-1.024 1.536-1.536 2.56-3.072 4.608-4.608 6.144-26.112 26.112-52.736 52.736-77.312 77.824-4.096 4.096-6.656 4.608-8.192 4.608-2.048 0-4.608-1.024-7.68-3.584l-13.312-9.728c-16.384-11.776-33.28-23.552-50.176-35.84-5.12-3.584-10.24-5.632-15.36-5.632-4.096 0-8.192 1.024-12.8 3.072-23.552 10.24-47.616 20.48-71.68 29.696-10.24 4.096-15.872 10.24-17.408 20.992-2.56 16.896-5.632 33.792-8.192 50.176-1.536 8.192-3.072 16.896-4.096 25.088-2.048 11.264-3.584 12.8-14.848 12.8h-107.52c-11.264 0-12.8-1.024-14.336-12.8-1.536-9.728-3.072-19.456-4.608-29.184-2.56-15.36-5.12-30.72-7.68-46.592-1.536-10.24-7.168-16.384-17.408-20.48-23.040-9.216-47.104-18.944-71.68-29.696-4.608-2.048-8.704-3.072-12.8-3.072-5.12 0-10.24 1.536-14.848 5.12-16.896 12.288-34.304 24.576-51.2 36.864l-13.312 10.24c-3.584 2.56-6.144 3.584-7.68 3.584-1.024 0-3.072-0.512-7.68-5.12-26.112-25.6-51.712-51.712-77.824-77.824-6.656-6.144-6.656-8.192-1.536-15.872l10.24-14.336c11.776-16.384 23.552-33.28 35.328-49.664 6.144-8.192 6.656-16.384 2.048-27.136-10.752-25.088-20.992-49.152-30.208-72.704-4.096-10.24-10.24-15.36-19.968-16.896-19.456-3.072-38.912-6.144-57.856-9.728l-18.944-3.072c-10.24-1.536-11.776-3.584-11.776-14.336 0-35.328 0-70.656 0-105.984 0-11.776 1.024-12.8 12.288-14.848 8.192-1.536 16.384-2.56 24.064-4.096 16.896-3.072 34.304-5.632 51.2-8.192 10.24-1.536 16.896-7.168 20.992-17.92 8.192-20.992 17.408-43.008 29.696-71.68 4.608-10.24 3.584-18.944-2.048-27.136-11.776-16.384-24.064-33.28-35.328-49.664l-10.24-14.336c-5.12-7.168-5.12-9.728 1.536-16.384 25.6-25.6 51.2-51.2 76.8-76.8 4.608-4.608 6.656-5.12 8.192-5.12 2.048 0 4.608 1.024 8.192 3.584l14.848 10.752c16.384 11.264 32.768 23.552 49.152 35.328 5.632 3.584 10.24 5.632 15.36 5.632zM772.608 49.664c-4.096 1.536-13.312 3.584-20.992 8.704-19.456 12.8-37.888 26.624-56.832 39.936-3.584 2.56-6.144 3.072-10.752 1.024-17.408-7.68-35.328-15.36-53.248-22.016-5.632-2.048-7.168-5.12-8.192-9.728-3.584-22.528-7.68-44.544-11.264-67.072-3.584-21.504-20.992-37.888-43.008-37.888-39.936-0.512-79.872-0.512-119.808 0-21.504 0-39.424 16.384-43.008 37.376-3.584 22.528-7.68 45.056-11.264 67.584-1.024 5.12-2.56 7.68-8.192 9.728-17.92 6.656-35.328 14.336-53.248 22.016-4.096 2.048-7.168 1.536-10.752-1.024-18.432-13.312-36.864-26.624-55.296-39.424-19.456-13.824-41.984-12.8-58.88 3.584-28.16 27.136-55.808 54.784-82.944 82.944-16.384 16.896-17.408 38.912-4.096 58.368 12.8 18.432 26.112 36.864 39.424 55.296 3.072 4.608 3.072 7.68 1.024 12.8-7.68 16.896-14.848 34.304-20.992 51.712-2.048 5.12-4.608 7.168-9.728 8.192-22.528 3.584-45.056 7.68-67.584 11.264-20.992 3.584-37.376 21.504-37.376 42.496 0 39.936 0 79.872 0.512 119.808 0 21.504 15.872 39.424 36.864 43.008 22.528 3.584 44.544 7.68 67.072 11.264 6.144 1.024 9.216 3.584 11.264 9.728 6.656 17.408 13.824 34.816 21.504 51.712 2.048 4.096 2.048 6.656-1.024 10.752-13.312 17.92-26.112 36.352-38.912 54.784-15.36 21.504-13.824 43.008 5.12 61.952 26.112 26.624 52.736 53.248 79.36 79.36 17.92 17.92 40.96 19.456 61.44 5.12 17.92-12.8 35.84-25.6 53.76-38.4 4.096-3.072 7.168-3.584 11.776-1.024 17.408 7.68 34.816 14.848 52.224 21.504 5.12 2.048 7.168 4.608 8.192 9.728 3.584 22.528 7.68 45.056 11.264 67.584 3.584 20.992 21.504 37.376 42.496 37.376 39.936 0.512 79.872 0.512 119.808 0 21.504 0 39.424-15.872 43.008-37.376 4.096-22.016 7.68-44.544 11.264-67.072 1.024-6.144 3.584-9.216 9.728-11.264 17.408-6.656 34.816-13.824 51.712-21.504 4.096-2.048 6.656-2.048 10.752 1.024 18.432 13.312 36.864 26.112 55.296 39.424 18.944 13.824 41.984 13.312 58.368-3.072 29.184-28.16 57.856-56.832 86.016-86.016 14.336-14.336 14.848-37.376 3.072-54.784-13.312-19.456-27.136-38.4-40.96-57.344-3.072-4.096-2.56-6.656-1.024-11.264 7.68-17.408 14.848-34.816 21.504-52.224 2.048-5.12 4.608-7.68 9.728-8.192 22.528-3.584 45.056-7.68 67.584-11.264 20.992-3.584 37.376-20.992 37.376-42.496 0.512-39.936 0.512-79.872 0-119.808 0-22.016-16.384-39.424-37.888-43.008-22.528-3.584-45.056-7.68-67.584-11.264-5.12-1.024-7.168-3.072-9.216-7.68-6.656-17.92-14.336-35.328-22.016-53.248-2.048-4.608-1.536-7.168 1.024-11.264 13.824-18.944 27.648-37.888 40.96-57.344 12.288-17.92 10.24-40.96-5.12-56.32-27.648-27.648-55.296-55.296-82.944-83.456-8.192-9.216-19.456-12.8-36.352-13.312zM874.496 714.752c-2.56 4.096-4.608 8.192-7.68 11.264-25.6 26.112-51.712 51.712-77.312 77.824-7.68 7.68-13.312 8.192-22.528 1.536-20.992-15.36-42.496-30.208-63.488-45.568-7.68-5.632-14.848-5.632-23.552-2.048-23.552 10.24-47.616 20.48-71.68 29.696-8.192 3.072-12.8 8.192-14.336 16.896-4.096 25.088-8.192 50.176-12.288 75.264-2.048 13.824-6.144 16.896-19.456 16.896-35.328 0-70.656 0-105.984 0-13.824 0-17.408-3.072-19.456-16.896-4.096-25.088-8.704-50.176-12.288-75.264-1.536-8.704-6.144-13.312-14.336-16.896-24.064-9.216-48.128-19.456-71.68-29.696-8.192-3.584-15.36-3.584-22.528 1.536-20.992 15.36-42.496 30.72-64 46.080-9.216 6.656-13.824 6.144-22.016-2.048-26.112-25.6-51.712-51.712-77.824-77.824-8.192-8.192-8.704-13.312-2.048-22.528 15.36-21.504 30.208-43.008 46.080-64 5.12-7.168 5.12-13.824 1.536-22.016-10.24-24.064-20.48-48.128-30.208-72.704-3.072-8.192-7.68-12.288-16.384-13.824-25.6-4.096-51.2-8.192-76.8-12.8-12.8-2.048-15.872-6.144-15.872-18.944 0-35.328 0-70.656 0-105.984 0-14.336 3.072-17.408 16.896-19.968 25.088-4.096 50.176-8.704 75.264-12.288 9.216-1.536 13.824-6.144 17.408-14.848 9.216-24.064 19.456-48.128 29.696-71.68 3.584-8.192 3.584-14.848-1.536-22.016-15.36-20.992-30.72-42.496-46.080-64-6.656-9.216-6.144-14.848 2.048-23.040 25.6-25.6 51.2-51.2 76.8-76.8 8.192-8.192 13.824-8.704 23.040-2.048 21.504 15.36 43.008 30.208 64 46.080 7.168 5.12 13.824 5.12 22.016 1.536 24.064-10.24 48.128-20.48 72.704-30.208 8.192-3.072 12.288-7.68 13.824-16.384 4.096-25.088 8.192-50.176 12.288-75.264 2.56-14.336 6.144-17.408 19.968-17.408 35.328 0 70.656 0 105.984 0 13.312 0 16.896 3.072 18.944 16.896 4.096 25.6 8.704 50.688 12.8 76.288 1.536 8.704 6.144 12.8 13.824 16.384 24.576 9.728 48.64 19.968 72.704 30.208 8.192 3.584 14.848 3.584 22.016-1.536 20.992-15.36 42.496-30.72 64-46.080 9.728-6.656 14.336-6.656 22.528 2.048 25.6 25.6 51.2 51.2 76.8 76.8 8.704 8.704 9.216 13.312 2.048 23.552-15.36 21.504-30.72 43.008-46.080 64-5.12 7.168-4.608 13.824-1.536 21.504 10.24 24.064 20.48 48.64 30.208 73.216 3.072 7.68 7.68 12.288 15.872 13.312 25.6 4.096 50.688 8.192 76.288 12.8 13.824 2.048 16.896 6.144 16.896 19.456 0 34.816 0 70.144 0 104.96 0 14.336-3.072 17.92-17.408 20.48-25.6 4.096-50.688 8.704-76.288 12.8-8.192 1.536-12.8 5.632-15.872 13.312-9.728 24.576-19.456 48.64-30.208 72.704-3.584 8.192-3.584 15.36 2.048 22.528 15.36 20.992 30.208 42.496 45.568 63.488 3.072 3.072 4.608 7.168 6.656 11.264zM506.368 249.344c-104.96 0-193.024 90.112-193.024 196.096 0 52.736 20.48 102.4 57.856 139.264s87.040 56.832 140.8 56.832c51.712 0 100.352-20.48 137.216-58.368 36.352-37.376 56.832-87.552 56.832-140.288-1.024-106.496-90.112-193.536-199.68-193.536v0zM509.44 600.064c-84.992 0-154.624-68.096-154.624-152.064 0-41.984 15.872-80.896 45.056-110.592s67.584-45.568 108.544-45.568c85.504 0 154.624 68.608 154.624 153.088 0 41.472-15.872 80.384-45.056 109.568-28.672 29.184-67.072 45.568-108.544 45.568v0zM317.952 445.44c0 106.496 85.504 190.976 193.536 190.976 104.448 0 188.416-86.528 188.416-193.536 0-104.448-87.040-188.416-194.048-188.416-102.4 0-187.904 87.040-187.904 190.976zM509.44 604.672c-87.040 0-159.232-71.168-159.744-157.184 0-89.088 70.656-161.28 158.72-161.28s159.744 71.168 159.744 158.208c0.512 89.088-70.656 160.256-158.72 160.256z" />
<glyph unicode="&#xe906;" glyph-name="home" d="M1012.224 378.88l-446.976 494.080c-13.824 15.36-32.768 23.552-52.736 23.552v0c-19.968 0-38.912-8.704-52.736-23.552l-446.976-494.080c-9.216-10.24-8.704-26.624 1.536-35.84 4.608-4.608 10.752-6.656 16.896-6.656 6.656 0 13.824 2.56 18.944 8.192l108.032 119.296v-406.016c0-41.984 34.304-75.776 75.776-75.776h557.056c41.984 0 75.776 34.304 75.776 75.776v406.016l108.032-119.296c9.216-10.24 25.6-11.264 35.84-1.536s11.264 25.6 1.536 35.84v0zM613.888 32.768h-202.752v227.84c0 13.824 11.264 25.088 25.088 25.088h152.064c13.824 0 25.088-11.264 25.088-25.088v-227.84zM816.64 57.856c0-13.824-11.264-25.088-25.088-25.088h-126.464v227.84c0 41.984-34.304 75.776-75.776 75.776h-152.576c-41.984 0-75.776-34.304-75.776-75.776v-227.84h-126.976c-13.824 0-25.088 11.264-25.088 25.088v462.336l288.768 318.976c4.096 4.608 9.728 7.168 15.36 7.168s11.264-2.56 15.36-7.168l288.768-318.976v-462.336z" />
<glyph unicode="&#xe907;" glyph-name="group" d="M228.864 42.496c-1.536 0-2.56 0.512-3.584 1.536s-1.536 2.048-1.536 3.584c0 13.312 0 26.624 0 39.936 0 30.208 0.512 60.928 0 91.648-0.512 35.84 9.728 67.584 32.256 97.792 35.328 47.104 84.48 82.432 150.016 107.008l2.048 1.024c-42.496 31.232-68.096 76.288-73.216 128-5.12 53.76 13.824 108.544 50.688 145.408 34.304 34.304 79.872 53.76 128.512 53.76 49.152 0 95.744-19.456 130.56-55.296 36.352-36.864 54.272-88.576 49.664-141.824-4.608-50.688-29.696-96.256-71.168-128.512 0.512 0 1.024-0.512 1.024-0.512 65.024-23.040 113.664-57.344 148.48-105.472 22.016-30.208 32.768-64 32.256-99.84-0.512-31.232-0.512-62.464 0-93.184 0-13.312 0-26.624 0-39.936 0-1.536-0.512-2.56-1.536-3.584s-2.048-1.536-3.584-1.536h-570.88zM763.392 85.504v5.632c0 8.704 0 17.92 0 26.624 0 19.968-0.512 40.448 0.512 60.928 1.024 31.744-9.728 60.928-32.768 88.576-32.768 38.4-75.776 65.536-131.072 82.432-13.824 4.096-27.648 8.192-41.984 12.8l-20.992 6.144c-2.048 0.512-3.072 2.048-3.584 4.096s0.512 3.584 2.048 5.12c6.656 4.608 13.312 8.704 19.456 12.8 13.312 8.704 26.112 17.408 38.4 25.6 46.592 32.256 69.632 87.552 58.368 141.312-13.824 67.072-69.12 111.616-137.216 111.616-5.632 0-11.776-0.512-17.408-1.024-33.792-3.584-66.56-22.528-89.088-50.688-23.040-28.672-33.792-64.512-30.208-98.304 5.12-46.592 27.136-81.92 67.584-107.52 11.776-7.168 23.040-14.848 35.328-22.528l17.408-11.264c1.536-1.024 2.56-3.072 2.048-4.608 0-2.048-1.536-3.584-3.072-4.096l-11.264-4.096c-9.216-3.584-18.944-6.656-28.16-9.728-20.48-6.656-41.984-13.824-61.952-23.040-48.64-22.016-84.992-51.2-110.592-90.624-12.288-18.944-17.92-38.4-17.408-59.392s0.512-42.496 0-62.976c0-9.728 0-19.456 0-29.184 0-1.536 0-3.072 0-4.608h495.616zM15.872 165.888c-2.56 0-5.12 2.048-5.12 5.12v164.864c0 0.512 0 1.024 0 1.024 0.512 2.56 1.024 4.608 1.536 7.168 1.024 5.12 2.048 10.24 3.584 15.36 13.312 46.592 42.496 86.016 88.576 119.808 13.824 10.24 29.184 18.432 44.032 26.624 6.656 3.584 12.8 7.168 18.944 10.752 1.024 0.512 2.56 1.024 3.584 2.048-48.128 54.272-64.512 114.688-48.128 179.712 13.312 52.736 45.568 93.184 94.72 120.32 28.16 15.36 57.856 23.552 89.088 23.552 64.512 0 129.024-35.328 160.256-88.576 1.536-2.56 0.512-5.12-1.536-6.656l-25.6-16.384c-1.024-0.512-1.536-1.024-2.56-1.024-1.536 0-3.072 0.512-4.096 2.048-31.232 45.056-73.216 68.096-124.928 68.096-5.632 0-11.264-0.512-17.408-1.024-38.4-3.584-70.144-19.968-95.232-48.128-32.768-37.888-43.52-82.432-32.768-133.632 9.216-44.032 37.888-77.824 89.6-106.496 1.536-1.024 2.56-3.072 2.56-4.608 0-2.048-1.536-3.584-3.072-4.096-7.68-2.56-15.36-5.12-22.528-7.68-15.872-5.632-31.232-10.752-46.080-16.896-43.008-17.92-77.824-44.544-102.4-78.336-19.456-26.112-28.16-53.76-27.648-84.48 0.512-23.552 0.512-47.104 0.512-70.144 0-10.24 0-20.48 0-30.72v-6.144h132.608c2.56 0 5.12-2.048 5.12-5.12v-31.744c0-2.56-2.048-5.12-5.12-5.12h-170.496zM847.872 165.888c-1.536 0-2.56 0.512-3.584 0.512-0.512 0-1.024 0-1.536 0.512-2.56 0.512-4.096 2.56-4.096 5.12v30.72c0 2.56 2.048 5.12 5.12 5.12h133.12v7.68c0 9.728 0 19.456 0 29.184 0 21.504-0.512 43.52 0.512 65.024 2.048 40.96-12.288 76.288-44.032 109.568-33.28 34.816-76.8 59.904-133.632 75.776-5.12 1.536-10.24 3.072-15.36 4.608l-1.024 0.512c-1.024 0-1.536 0.512-2.56 1.024l-2.048 1.024c-1.536 0.512-2.56 2.56-3.072 4.096 0 1.536 0.512 3.584 2.048 4.608 1.024 1.024 2.56 1.536 3.584 2.56 2.048 1.536 4.096 2.56 5.632 4.096 5.12 4.096 11.264 8.704 16.384 12.288 12.288 9.216 24.576 17.92 33.28 28.672 39.424 47.104 46.080 102.4 19.456 159.744-25.088 53.76-70.144 81.92-133.12 82.432h-2.56c-48.64 0-89.088-20.992-118.784-61.952-1.024-1.536-2.56-3.072-3.584-4.608-0.512-1.024-1.536-1.536-2.048-1.536l-1.024-0.512c-1.024-0.512-2.048-1.024-2.56-1.024-1.024 0-2.048 0.512-2.56 1.024l-26.112 16.384c-1.024 0.512-2.048 2.048-2.048 3.072-0.512 1.536 0 2.56 1.024 4.096 36.864 52.736 84.992 81.92 143.36 86.528 6.144 0.512 12.288 0.512 18.432 0.512 70.144 0 126.464-33.28 162.304-96.256 44.032-76.8 34.816-153.6-28.16-227.328 4.096-2.048 7.68-3.584 11.776-5.632 57.344-28.16 98.816-65.024 126.464-112.128 11.264-19.456 17.92-38.4 20.48-58.368 0-0.512 0.512-1.536 1.024-2.56 0.512-0.512 0.512-1.536 0.512-2.048s0.512-1.024 0.512-1.536v-164.864c0-2.56-2.048-5.12-5.12-5.12-55.808-1.024-111.104-1.024-166.4-1.024v0z" />
<glyph unicode="&#xe908;" glyph-name="person" d="M858.674 136.115c75.595 82.61 121.707 192.789 121.707 313.673 0 256.357-207.318 464.209-463.017 464.209s-463.017-207.852-463.017-464.209c0-125.052 49.326-238.547 129.55-322.010 31.655 89.621 97.895 164.273 185.679 205.863l70.964 33.631-56.224 54.947c-36.663 35.81-57.641 84.6-57.641 136.894 0 105.537 85.327 191.178 190.688 191.178 105.266 0 190.688-85.547 190.688-191.178 0-50.968-19.938-98.716-54.901-134.242l-55.184-55.989 71.626-32.21c88.162-39.695 155.536-112.452 189.081-200.557zM517.364 914.471c-255.954 0-463.49-208.070-463.49-464.683s207.535-464.683 463.49-464.683c255.954 0 463.49 208.070 463.49 464.683s-207.535 464.683-463.49 464.683zM517.364 913.524c255.444 0 462.545-207.634 462.545-463.736s-207.101-463.736-462.545-463.736c-255.444 0-462.545 207.634-462.545 463.736s207.101 463.736 462.545 463.736zM517.364 859.903c-225.905 0-409.062-183.628-409.062-410.115s183.157-410.115 409.062-410.115c225.905 0 409.062 183.628 409.062 410.115s-183.157 410.115-409.062 410.115zM517.364 858.956c225.395 0 408.117-183.193 408.117-409.168s-182.722-409.168-408.117-409.168c-225.395 0-408.117 183.193-408.117 409.168s182.722 409.168 408.117 409.168zM485.482-12.4c-2.295 0.259-10.073 1.058-17.285 1.774-98.907 9.829-197.24 55.63-269.775 125.654l-13.936 13.454 5.231 12.954c2.877 7.125 8.138 18.774 11.691 25.889l6.46 12.935 13.816-14.5c66.19-69.464 152.373-112.188 250.686-124.272 16.697-2.052 74.122-2.025 90.598 0.043 49.39 6.199 91.535 18.612 134.109 39.499 49.375 24.223 91.664 56.528 128.167 97.909 7.33 8.309 8.102 8.866 9.403 6.782 2.754-4.409 17.642-35 20.312-41.734l2.706-6.825-6.674-7.602c-3.671-4.181-13.249-13.549-21.286-20.818-74.564-67.441-158.987-106.331-258.393-119.033-12.919-1.651-76.142-3.206-85.83-2.111zM173.433 140.022c-56.476 63.049-94.569 139.986-110.403 222.982-5.945 31.16-7.22 46.238-7.258 85.83-0.037 38.623 0.763 49.384 5.959 80.141 8.496 50.292 27.387 103.853 51.963 147.331 10.080 17.833 29.65 46.801 42.827 63.396 14.93 18.801 52.96 57.082 70.768 71.236 74.757 59.414 159.786 93.258 253.922 101.070 24.306 2.017 71.805 0.855 95.466-2.335 64.413-8.684 123.998-29.435 178.081-62.017 118.021-71.102 197.782-189.447 219.382-325.509 7.647-48.169 7.229-103.375-1.152-152.189-14.224-82.847-53.090-163.777-109.132-227.241l-4.881-5.528-5.62 13.368c-25.943 61.711-74.039 119.451-131.244 157.561-20.608 13.729-36.358 21.892-81.33 42.153l-41.894 18.875 20.307 20.174c52.712 52.367 67.496 72.803 79.685 110.159 7.066 21.655 8.927 34.080 8.927 59.622 0 16.468-0.563 25.073-2.224 33.974-4.784 25.646-16.124 53.154-30.959 75.101-9.998 14.79-35 39.668-49.617 49.368-51.178 33.966-110.747 42.192-168.134 23.219-48.243-15.95-87.605-50.263-110.618-96.429-26.622-53.408-26.619-117.125 0.008-170.468 12.846-25.735 23.095-38.254 62.841-76.766 16.508-15.996 29.584-29.483 29.057-29.973s-14.905-7.442-31.952-15.451c-58.067-27.279-82.323-41.24-109.072-62.774-46.773-37.655-86.269-91.238-108.603-147.34-2.673-6.715-4.947-12.285-5.053-12.377s-4.628 4.783-10.048 10.835v0zM172.573 140.8c-64.273 72.576-103.077 159.365-115.072 257.371-2.041 16.68-2.796 67.899-1.281 87.022 7.489 94.571 41.992 181.85 101.093 255.722 12.801 16 41.873 45.977 58.661 60.487 28.702 24.808 59.57 45.331 94.273 62.682 50.205 25.101 94.694 38.649 151.663 46.188 19.56 2.588 68.301 3.526 91.123 1.753 101.434-7.879 195.17-47.839 271.599-115.784 114.574-101.857 171.118-253.954 151.31-407.010-11.48-88.703-48.926-172.525-108.273-242.367l-8.421-9.91-1.474 3.354c-14.573 33.148-20.975 45.244-35.532 67.13-32.044 48.18-72.9 86.068-124.479 115.438-7.809 4.447-33.22 16.634-56.47 27.083l-42.272 18.999 27.571 28.078c15.164 15.443 30.592 31.538 34.285 35.766 22.035 25.233 36.839 55.218 44.113 89.346 2.269 10.644 2.668 16.174 2.668 36.955 0 26.877-1.686 38.3-8.884 60.2-5.064 15.405-17.668 40.033-26.696 52.161-44.469 59.739-113.84 88.288-186.122 76.598-68.908-11.145-127.305-61.158-149.503-128.037-5.763-17.363-8.036-28.499-9.517-46.627-3.336-40.837 7.604-83.629 30.323-118.602 9.936-15.295 22.434-29.15 53.11-58.875 15.825-15.334 28.337-28.297 27.804-28.806s-18.483-9.227-39.891-19.372c-41.981-19.895-56.013-27.363-75.139-39.988-58.135-38.377-106.973-98.426-133.941-164.689-3.069-7.54-5.681-13.826-5.806-13.968s-4.994 5.124-10.821 11.703zM172.405 140.854c-36.386 41.621-63.871 85.867-84.313 135.73-16.254 39.646-28.642 92.822-31.879 136.842-1.707 23.216-0.687 74.263 1.864 93.224 12.021 89.36 44.524 165.697 100.499 236.033 12.347 15.515 55.253 58.013 71.023 70.35 28.744 22.485 54.235 38.347 87.953 54.73 45.513 22.114 90.432 35.403 144.088 42.626 23.009 3.097 87.486 3.086 111.46-0.020 54.008-6.997 104.271-22.162 150.805-45.5 135.121-67.766 229.133-197.723 250.922-346.86 7.532-51.555 6.427-107.164-3.093-155.6-15.739-80.078-49.469-150.439-102.521-213.858l-9.871-11.8-1.728 4.051c-0.95 2.228-6.709 14.243-12.798 26.701-28.562 58.441-70.863 106.277-126.064 142.559-17.362 11.411-43.776 24.826-86.79 44.075l-32.928 14.736 30.178 31.040c16.598 17.072 33.053 34.575 36.565 38.896 31.176 38.347 45.822 86.571 41.599 136.976-9.294 110.923-112.124 190.696-221.895 172.141-26.839-4.537-57.289-17.329-79.778-33.517-41.567-29.919-70.602-78.269-77.602-129.225-2.179-15.861-1.649-42.381 1.174-58.744 6.138-35.583 22.379-68.793 46.775-95.647 5.44-5.988 21.848-22.571 36.461-36.849s26.147-26.372 25.63-26.873c-0.517-0.502-17.301-8.692-37.298-18.202-54.017-25.688-70.521-34.998-95.293-53.758-49.315-37.347-90.906-91.095-114.426-147.874-2.716-6.556-5.611-13.452-6.434-15.324l-1.496-3.403-10.791 12.343zM467.004-9.992c-101.425 11.614-196.083 56.051-268.423 126.012l-13.328 12.889 4.793 11.548c2.636 6.352 7.697 17.671 11.246 25.155l6.453 13.607 16.977-17.201c61.979-62.795 134.583-101 222.742-117.206 21.316-3.919 41.371-5.462 70.673-5.439 37.747 0.030 61.284 2.707 94.858 10.79 20.923 5.037 32.712 8.733 51.893 16.267 58.754 23.079 106.975 55.538 150.912 101.58 9.361 9.81 17.535 17.518 18.164 17.129 1.081-0.668 17.405-33.815 21.512-43.681l1.91-4.587-14.591-14.526c-50.487-50.262-112.961-88.992-179.099-111.029-36.836-12.274-76.201-20.198-109.603-22.065-27.37-1.529-70.388-1.155-87.091 0.757z" />
<glyph unicode="&#xe909;" glyph-name="locked" d="M928-64h-832c-17.664 0-32 14.304-32 32v512c0 17.696 14.336 32 32 32h96v128c0 176.736 143.264 320 320 320s320-143.264 320-320v-128h96c17.696 0 32-14.304 32-32v-512c0-17.696-14.304-32-32-32zM704 656c0 97.216-85.984 176-192 176s-192-78.784-192-176v-144h384v144z" />
<glyph unicode="&#xe90a;" glyph-name="pencil" d="M864 960c88.364 0 160-71.634 160-160 0-36.020-11.91-69.258-32-96l-64-64-224 224 64 64c26.742 20.090 59.978 32 96 32zM64 224l-64-288 288 64 592 592-224 224-592-592zM715.578 596.422l-448-448-55.156 55.156 448 448 55.156-55.156z" />
<glyph unicode="&#xe90b;" glyph-name="newWindow" d="M541.696 847.872c0-22.016 0-40.96 0-62.464-10.24 0-24.064 0-33.28 0-126.464 0-196.096 0-322.56 0-75.776 0-118.272-43.008-118.784-119.296-0.512-180.736-0.512-361.984-0.512-542.72 0-73.728 42.496-116.736 115.2-116.736 182.784-0.512 365.056-0.512 547.84-0.512 76.8 0 118.784 41.984 118.784 118.784 0 123.904-0.512 196.096-1.024 320 0 10.24 0 20.48 0 32.256 21.504 0 40.448 0 61.44 0 0.512-8.704 1.024-16.896 1.024-25.088 0-126.464 0-201.216 0-327.68 0-109.568-69.632-179.712-178.688-179.712-185.856 0-372.224 0-558.080 1.024-100.352 0.512-166.912 66.56-167.424 166.912 0 186.88 0 374.784 0 562.688 0 99.328 72.192 171.52 171.008 172.032 131.584 0.512 211.456 0.512 343.040 0.512 6.656 0 13.312 0 22.016 0zM847.36 858.112c-61.952 0-118.272 0-174.592 0-7.68 0-15.36-0.512-23.040 0.512-25.6 3.072-44.544 23.552-43.52 48.128 1.024 24.064 18.432 44.032 44.032 44.032 103.936 1.536 207.872 2.56 311.808 3.072 28.672 0 46.592-18.432 47.104-47.104 1.536-102.4 2.56-204.8 3.072-306.688 0-30.208-19.968-49.664-47.104-49.664s-46.080 18.944-47.104 49.664c-1.024 52.736-1.024 105.472-1.536 158.72 0 9.216 0 18.432 0 33.28-10.24-9.728-16.896-15.36-23.552-22.016-90.112-91.136-179.712-182.272-269.312-272.896-6.144-6.144-11.776-12.288-18.944-17.408-18.432-12.8-43.008-10.752-58.88 4.096-16.896 15.872-19.456 41.472-6.144 60.416 5.12 6.656 11.264 12.8 17.408 18.944 89.088 90.624 178.688 180.736 267.776 271.36 7.168 6.144 13.312 12.8 22.528 23.552z" />
<glyph unicode="&#xe921;" glyph-name="library" horiz-adv-x="1088" d="M1024 0v64h-64v384h64v64h-192v-64h64v-384h-192v384h64v64h-192v-64h64v-384h-192v384h64v64h-192v-64h64v-384h-192v384h64v64h-192v-64h64v-384h-64v-64h-64v-64h1088v64h-64zM512 960h64l512-320v-64h-1088v64l512 320z" />
<glyph unicode="&#xe922;" glyph-name="file-text" d="M864 960h-768c-52.8 0-96-43.2-96-96v-832c0-52.8 43.2-96 96-96h768c52.8 0 96 43.2 96 96v832c0 52.8-43.2 96-96 96zM832 64h-704v768h704v-768zM256 512h448v-64h-448zM256 384h448v-64h-448zM256 256h448v-64h-448zM256 640h448v-64h-448z" />
<glyph unicode="&#xe923;" glyph-name="profile" d="M864 960h-768c-52.8 0-96-43.2-96-96v-832c0-52.8 43.2-96 96-96h768c52.8 0 96 43.2 96 96v832c0 52.8-43.2 96-96 96zM832 64h-704v768h704v-768zM256 384h448v-64h-448zM256 256h448v-64h-448zM320 672c0 53.019 42.981 96 96 96s96-42.981 96-96c0-53.019-42.981-96-96-96s-96 42.981-96 96zM480 576h-128c-52.8 0-96-28.8-96-64v-64h320v64c0 35.2-43.2 64-96 64z" />
<glyph unicode="&#xe93b;" glyph-name="coin" d="M480 896c-265.096 0-480-214.904-480-480 0-265.098 214.904-480 480-480 265.098 0 480 214.902 480 480 0 265.096-214.902 480-480 480zM480 32c-212.078 0-384 171.922-384 384s171.922 384 384 384c212.078 0 384-171.922 384-384s-171.922-384-384-384zM512 448v128h128v64h-128v64h-64v-64h-128v-256h128v-128h-128v-64h128v-64h64v64h128.002l-0.002 256h-128zM448 448h-64v128h64v-128zM576.002 256h-64.002v128h64.002v-128z" />
<glyph unicode="&#xe94d;" glyph-name="history" horiz-adv-x="1088" d="M640 896c247.424 0 448-200.576 448-448s-200.576-448-448-448v96c94.024 0 182.418 36.614 248.902 103.098s103.098 154.878 103.098 248.902c0 94.022-36.614 182.418-103.098 248.902s-154.878 103.098-248.902 103.098c-94.022 0-182.418-36.614-248.902-103.098-51.14-51.138-84.582-115.246-97.306-184.902h186.208l-224-256-224 256h164.57c31.060 217.102 217.738 384 443.43 384zM832 512v-128h-256v320h128v-192z" />
<glyph unicode="&#xe954;" glyph-name="print" d="M256 896h512v-128h-512v128zM960 704h-896c-35.2 0-64-28.8-64-64v-320c0-35.2 28.794-64 64-64h192v-256h512v256h192c35.2 0 64 28.8 64 64v320c0 35.2-28.8 64-64 64zM128 512c-35.346 0-64 28.654-64 64s28.654 64 64 64 64-28.654 64-64-28.652-64-64-64zM704 64h-384v320h384v-320z" />
<glyph unicode="&#xe956;" glyph-name="screen" d="M0 896v-640h1024v640h-1024zM960 320h-896v512h896v-512zM672 192h-320l-32-128-64-64h512l-64 64z" />
<glyph unicode="&#xe958;" glyph-name="mobile" d="M736 960h-448c-52.8 0-96-43.2-96-96v-832c0-52.8 43.2-96 96-96h448c52.8 0 96 43.2 96 96v832c0 52.8-43.2 96-96 96zM384 912h256v-32h-256v32zM512 0c-35.346 0-64 28.654-64 64s28.654 64 64 64 64-28.654 64-64-28.654-64-64-64zM768 192h-512v640h512v-640z" />
<glyph unicode="&#xe960;" glyph-name="download" d="M512 384l256 256h-192v256h-128v-256h-192zM744.726 488.728l-71.74-71.742 260.080-96.986-421.066-157.018-421.066 157.018 260.080 96.986-71.742 71.742-279.272-104.728v-256l512-192 512 192v256z" />
<glyph unicode="&#xe961;" glyph-name="upload" d="M448 384h128v256h192l-256 256-256-256h192zM640 528v-98.712l293.066-109.288-421.066-157.018-421.066 157.018 293.066 109.288v98.712l-384-144v-256l512-192 512 192v256z" />
<glyph unicode="&#xe976;" glyph-name="user-tie" d="M320 768c0 106.039 85.961 192 192 192s192-85.961 192-192c0-106.039-85.961-192-192-192s-192 85.961-192 192zM768.078 512h-35.424l-199.104-404.244 74.45 372.244-96 96-96-96 74.45-372.244-199.102 404.244h-35.424c-127.924 0-127.924-85.986-127.924-192v-320h768v320c0 106.014 0 192-127.922 192z" />
<glyph unicode="&#xe986;" glyph-name="search" d="M992.262 88.604l-242.552 206.294c-25.074 22.566-51.89 32.926-73.552 31.926 57.256 67.068 91.842 154.078 91.842 249.176 0 212.078-171.922 384-384 384-212.076 0-384-171.922-384-384s171.922-384 384-384c95.098 0 182.108 34.586 249.176 91.844-1-21.662 9.36-48.478 31.926-73.552l206.294-242.552c35.322-39.246 93.022-42.554 128.22-7.356s31.892 92.898-7.354 128.22zM384 320c-141.384 0-256 114.616-256 256s114.616 256 256 256 256-114.616 256-256-114.614-256-256-256z" />
<glyph unicode="&#xe99a;" glyph-name="pie-chart" d="M448 384v448c-247.424 0-448-200.576-448-448s200.576-448 448-448 448 200.576 448 448c0 72.034-17.028 140.084-47.236 200.382l-400.764-200.382zM912.764 712.382c-73.552 146.816-225.374 247.618-400.764 247.618v-448l400.764 200.382z" />
<glyph unicode="&#xe9af;" glyph-name="airplane" d="M768 320.032l-182.82 182.822 438.82 329.15-128.010 127.996-548.52-219.442-172.7 172.706c-49.78 49.778-119.302 61.706-154.502 26.508-35.198-35.198-23.268-104.726 26.51-154.5l172.686-172.684-219.464-548.582 127.99-128.006 329.19 438.868 182.826-182.828v-255.98h127.994l63.992 191.988 191.988 63.996v127.992l-255.98-0.004z" />
<glyph unicode="&#xe9b0;" glyph-name="truck" d="M1024 384l-128 256h-192v128c0 35.2-28.8 64-64 64h-576c-35.2 0-64-28.8-64-64v-512l64-64h81.166c-10.898-18.832-17.166-40.678-17.166-64 0-70.692 57.308-128 128-128s128 57.308 128 128c0 23.322-6.268 45.168-17.166 64h354.334c-10.898-18.832-17.168-40.678-17.168-64 0-70.692 57.308-128 128-128s128 57.308 128 128c0 23.322-6.27 45.168-17.168 64h81.168v192zM704 384v192h132.668l96-192h-228.668z" />
<glyph unicode="&#xe9c5;" glyph-name="download2" d="M896 448h-160l-224-224-224 224h-160l-128-256v-64h1024v64l-128 256zM0 64h1024v-64h-1024v64zM576 640v256h-128v-256h-224l288-288 288 288h-224z" />
<glyph unicode="&#xe9cb;" glyph-name="link" d="M440.236 324.234c-13.31 0-26.616 5.076-36.77 15.23-95.134 95.136-95.134 249.934 0 345.070l192 192c46.088 46.086 107.36 71.466 172.534 71.466s126.448-25.38 172.536-71.464c95.132-95.136 95.132-249.934 0-345.070l-87.766-87.766c-20.308-20.308-53.23-20.308-73.54 0-20.306 20.306-20.306 53.232 0 73.54l87.766 87.766c54.584 54.586 54.584 143.404 0 197.99-26.442 26.442-61.6 41.004-98.996 41.004s-72.552-14.562-98.996-41.006l-192-191.998c-54.586-54.586-54.586-143.406 0-197.992 20.308-20.306 20.306-53.232 0-73.54-10.15-10.152-23.462-15.23-36.768-15.23zM256-52c-65.176 0-126.45 25.38-172.534 71.464-95.134 95.136-95.134 249.934 0 345.070l87.764 87.764c20.308 20.306 53.234 20.306 73.54 0 20.308-20.306 20.308-53.232 0-73.54l-87.764-87.764c-54.586-54.586-54.586-143.406 0-197.992 26.44-26.44 61.598-41.002 98.994-41.002s72.552 14.562 98.998 41.006l192 191.998c54.584 54.586 54.584 143.406 0 197.992-20.308 20.308-20.306 53.232 0 73.54 20.306 20.306 53.232 20.306 73.54-0.002 95.132-95.134 95.132-249.932 0.002-345.068l-192.002-192c-46.090-46.088-107.364-71.466-172.538-71.466z" />
<glyph unicode="&#xea04;" glyph-name="point-right" d="M416 0h160c52.934 0 96 43.066 96 96 0 17.104-4.494 33.176-12.368 47.098 26.664 17.076 44.368 46.958 44.368 80.902 0 24.564-9.276 47.004-24.504 64 15.228 16.996 24.504 39.436 24.504 64 0 11.214-1.934 21.986-5.484 32h229.484c52.934 0 96 43.066 96 96s-43.066 96-96 96h-394.676l93.836 176.018c8.4 14.536 12.84 31.126 12.84 47.982 0 52.934-43.066 96-96 96-26.368 0-50.954-10.472-69.226-29.49-0.238-0.248-0.47-0.496-0.7-0.75l-218.074-239.17v45.41c0 17.672-14.326 32-32 32h-192c-17.674 0-32-14.328-32-32v-640c0-17.674 14.326-32 32-32h192c17.674 0 32 14.326 32 32v44.222l145.69-72.844c4.444-2.222 9.342-3.378 14.31-3.378zM160 64c-17.674 0-32 14.326-32 32s14.326 32 32 32 32-14.326 32-32-14.326-32-32-32zM423.556 64l-167.556 83.778v383.824l265.168 290.818c6.066 6.18 14.162 9.58 22.832 9.58 17.644 0 32-14.356 32-32 0-5.46-1.308-10.612-3.894-15.324-0.324-0.53-0.632-1.070-0.926-1.622l-119.418-224c-5.288-9.92-4.986-21.884 0.8-31.52 5.784-9.638 16.198-15.534 27.438-15.534h448c17.644 0 32-14.356 32-32s-14.356-32-32-32h-320c-17.672 0-32-14.326-32-32s14.328-32 32-32c17.644 0 32-14.356 32-32s-14.356-32-32-32c-17.674 0-32-14.326-32-32s14.326-32 32-32c17.644 0 32-14.356 32-32s-14.356-32-32-32h-32c-17.674 0-32-14.326-32-32s14.326-32 32-32c17.644 0 32-14.356 32-32s-14.356-32-32-32h-152.444z" />
<glyph unicode="&#xea08;" glyph-name="notification" d="M512 864c-111.118 0-215.584-43.272-294.156-121.844s-121.844-183.038-121.844-294.156c0-111.118 43.272-215.584 121.844-294.156s183.038-121.844 294.156-121.844c111.118 0 215.584 43.272 294.156 121.844s121.844 183.038 121.844 294.156c0 111.118-43.272 215.584-121.844 294.156s-183.038 121.844-294.156 121.844zM512 960v0c282.77 0 512-229.23 512-512s-229.23-512-512-512c-282.77 0-512 229.23-512 512s229.23 512 512 512zM448 256h128v-128h-128zM448 768h128v-384h-128z" />
<glyph unicode="&#xea0c;" glyph-name="info" d="M448 656c0 26.4 21.6 48 48 48h32c26.4 0 48-21.6 48-48v-32c0-26.4-21.6-48-48-48h-32c-26.4 0-48 21.6-48 48v32zM640 192h-256v64h64v192h-64v64h192v-256h64zM512 960c-282.77 0-512-229.23-512-512s229.23-512 512-512 512 229.23 512 512-229.23 512-512 512zM512 32c-229.75 0-416 186.25-416 416s186.25 416 416 416 416-186.25 416-416-186.25-416-416-416z" />
<glyph unicode="&#xea10;" glyph-name="checkmark" d="M864 832l-480-480-224 224-160-160 384-384 640 640z" />
<glyph unicode="&#xea11;" glyph-name="checkmark2" d="M397.434 42.304l-397.868 391.6 197.378 194.27 200.49-197.332 429.62 422.852 197.378-194.27-626.998-617.12zM107.912 433.904l289.524-284.962 518.656 510.482-89.036 87.632-429.62-422.852-200.49 197.334-89.034-87.634z" />
<glyph unicode="&#xea34;" glyph-name="arrow-right" d="M992 448l-480 480v-288h-512v-384h512v-288z" />
<glyph unicode="&#xeac0;" glyph-name="android" d="M896 576c-35.2 0-64-28.8-64-64v-256c0-35.2 28.8-64 64-64s64 28.8 64 64v256c0 35.2-28.8 64-64 64zM128 576c-35.2 0-64-28.8-64-64v-256c0-35.2 28.8-64 64-64s64 28.8 64 64v256c0 35.2-28.802 64-64 64zM224 224c0-53.020 42.98-96 96-96v0-128c0-35.2 28.8-64 64-64s64 28.8 64 64v128h128v-128c0-35.2 28.8-64 64-64s64 28.8 64 64v128c53.020 0 96 42.98 96 96v352h-576v-352zM798.216 639.998c-9.716 87.884-59.004 163.792-129.62 209.646l32.024 64.046c7.904 15.806 1.496 35.028-14.31 42.932s-35.030 1.496-42.932-14.312l-32.142-64.286-8.35 3.316c-28.568 9.502-59.122 14.66-90.886 14.66-31.762 0-62.316-5.158-90.888-14.656l-8.348-3.316-32.142 64.282c-7.904 15.808-27.128 22.212-42.932 14.312-15.808-7.904-22.214-27.126-14.312-42.932l32.022-64.046c-70.616-45.852-119.904-121.762-129.622-209.644v-32h574.222v31.998h-1.784zM416 704c-17.674 0-32 14.328-32 32 0 17.648 14.288 31.958 31.93 31.996 0.032 0 0.062-0.002 0.094-0.002 0.018 0 0.036 0.002 0.052 0.002 17.638-0.042 31.924-14.35 31.924-31.996 0-17.672-14.326-32-32-32zM608 704c-17.674 0-32 14.328-32 32 0 17.646 14.286 31.954 31.924 31.996 0.016 0 0.034-0.002 0.050-0.002 0.032 0 0.064 0.002 0.096 0.002 17.64-0.038 31.93-14.348 31.93-31.996 0-17.672-14.326-32-32-32z" />
<glyph unicode="&#xf06a;" glyph-name="exclamation-circle" horiz-adv-x="878" d="M438.857 877.714c242.286 0 438.857-196.571 438.857-438.857s-196.571-438.857-438.857-438.857-438.857 196.571-438.857 438.857 196.571 438.857 438.857 438.857zM512 165.143v108.571c0 10.286-8 18.857-17.714 18.857h-109.714c-10.286 0-18.857-8.571-18.857-18.857v-108.571c0-10.286 8.571-18.857 18.857-18.857h109.714c9.714 0 17.714 8.571 17.714 18.857zM510.857 361.714l10.286 354.857c0 4-1.714 8-5.714 10.286-3.429 2.857-8.571 4.571-13.714 4.571h-125.714c-5.143 0-10.286-1.714-13.714-4.571-4-2.286-5.714-6.286-5.714-10.286l9.714-354.857c0-8 8.571-14.286 19.429-14.286h105.714c10.286 0 18.857 6.286 19.429 14.286z" />
<glyph unicode="&#xf073;" glyph-name="calendar" horiz-adv-x="951" d="M73.143 0h164.571v164.571h-164.571v-164.571zM274.286 0h182.857v164.571h-182.857v-164.571zM73.143 201.143h164.571v182.857h-164.571v-182.857zM274.286 201.143h182.857v182.857h-182.857v-182.857zM73.143 420.571h164.571v164.571h-164.571v-164.571zM493.714 0h182.857v164.571h-182.857v-164.571zM274.286 420.571h182.857v164.571h-182.857v-164.571zM713.143 0h164.571v164.571h-164.571v-164.571zM493.714 201.143h182.857v182.857h-182.857v-182.857zM292.571 694.857v164.571c0 9.714-8.571 18.286-18.286 18.286h-36.571c-9.714 0-18.286-8.571-18.286-18.286v-164.571c0-9.714 8.571-18.286 18.286-18.286h36.571c9.714 0 18.286 8.571 18.286 18.286zM713.143 201.143h164.571v182.857h-164.571v-182.857zM493.714 420.571h182.857v164.571h-182.857v-164.571zM713.143 420.571h164.571v164.571h-164.571v-164.571zM731.429 694.857v164.571c0 9.714-8.571 18.286-18.286 18.286h-36.571c-9.714 0-18.286-8.571-18.286-18.286v-164.571c0-9.714 8.571-18.286 18.286-18.286h36.571c9.714 0 18.286 8.571 18.286 18.286zM950.857 731.428v-731.429c0-40-33.143-73.143-73.143-73.143h-804.571c-40 0-73.143 33.143-73.143 73.143v731.429c0 40 33.143 73.143 73.143 73.143h73.143v54.857c0 50.286 41.143 91.429 91.429 91.429h36.571c50.286 0 91.429-41.143 91.429-91.429v-54.857h219.429v54.857c0 50.286 41.143 91.429 91.429 91.429h36.571c50.286 0 91.429-41.143 91.429-91.429v-54.857h73.143c40 0 73.143-33.143 73.143-73.143z" />
<glyph unicode="&#xf081;" glyph-name="twitter-square" horiz-adv-x="878" d="M731.429 602.286c-21.714-9.714-44.571-16-69.143-19.429 25.143 14.857 44 38.857 53.143 66.857-23.429-13.714-49.143-24-76.571-29.143-21.714 23.429-53.143 37.714-87.429 37.714-66.286 0-120-53.714-120-120 0-9.143 0.571-18.857 2.857-27.429-100 5.143-188.571 52.571-248 125.714-10.286-17.714-16.571-38.857-16.571-60.571 0-41.714 19.429-78.286 52-100-20 0.571-38.857 6.286-57.143 14.857v-1.143c0-58.286 44-106.857 98.857-117.714-10.286-2.857-18.286-4.571-29.143-4.571-7.429 0-14.857 1.143-22.286 2.286 15.429-47.429 59.429-82.286 112-83.429-41.143-32-92.571-51.429-149.143-51.429-9.714 0-19.429 0.571-28.571 1.714 53.143-33.714 116-53.714 184-53.714 220.571 0 341.714 182.857 341.714 341.714 0 5.143 0 10.286-0.571 15.429 23.429 16.571 44 37.714 60 62.286zM877.714 713.143v-548.571c0-90.857-73.714-164.571-164.571-164.571h-548.571c-90.857 0-164.571 73.714-164.571 164.571v548.571c0 90.857 73.714 164.571 164.571 164.571h548.571c90.857 0 164.571-73.714 164.571-164.571z" />
<glyph unicode="&#xf082;" glyph-name="facebook-square" horiz-adv-x="878" d="M713.143 877.714c90.857 0 164.571-73.714 164.571-164.571v-548.571c0-90.857-73.714-164.571-164.571-164.571h-107.429v340h113.714l17.143 132.571h-130.857v84.571c0 38.286 10.286 64 65.714 64l69.714 0.571v118.286c-12 1.714-53.714 5.143-101.714 5.143-101.143 0-170.857-61.714-170.857-174.857v-97.714h-114.286v-132.571h114.286v-340h-304c-90.857 0-164.571 73.714-164.571 164.571v548.571c0 90.857 73.714 164.571 164.571 164.571h548.571z" />
<glyph unicode="&#xf0c9;" glyph-name="menu" d="M143.36 616.96c-16.896 0-30.72 15.872-30.72 35.84s13.824 35.84 30.72 35.84h737.28c16.896 0 30.72-15.872 30.72-35.84s-13.824-35.84-30.72-35.84h-737.28zM143.36 412.16c-16.896 0-30.72 15.872-30.72 35.84s13.824 35.84 30.72 35.84h737.28c16.896 0 30.72-15.872 30.72-35.84s-13.824-35.84-30.72-35.84h-737.28zM143.36 207.36c-16.896 0-30.72 15.872-30.72 35.84s13.824 35.84 30.72 35.84h737.28c16.896 0 30.72-15.872 30.72-35.84s-13.824-35.84-30.72-35.84h-737.28z" />
<glyph unicode="&#xf167;" glyph-name="youtube" horiz-adv-x="878" d="M554.857 240v-120.571c0-25.714-7.429-38.286-22.286-38.286-8.571 0-17.143 4-25.714 12.571v172c8.571 8.571 17.143 12.571 25.714 12.571 14.857 0 22.286-13.143 22.286-38.286zM748 239.428v-26.286h-51.429v26.286c0 25.714 8.571 38.857 25.714 38.857s25.714-13.143 25.714-38.857zM196 364h61.143v53.714h-178.286v-53.714h60v-325.143h57.143v325.143zM360.571 38.857h50.857v282.286h-50.857v-216c-11.429-16-22.286-24-32.571-24-6.857 0-10.857 4-12 12-0.571 1.714-0.571 8-0.571 20v208h-50.857v-223.429c0-20 1.714-33.143 4.571-41.714 4.571-14.286 16.571-21.143 33.143-21.143 18.286 0 37.714 11.429 58.286 34.857v-30.857zM605.714 123.428v112.571c0 26.286-1.143 45.143-5.143 56.571-6.286 21.143-20.571 32-40.571 32-18.857 0-36.571-10.286-53.143-30.857v124h-50.857v-378.857h50.857v27.429c17.143-21.143 34.857-31.429 53.143-31.429 20 0 34.286 10.857 40.571 31.429 4 12 5.143 30.857 5.143 57.143zM798.857 129.143v7.429h-52c0-20.571-0.571-32-1.143-34.857-2.857-13.714-10.286-20.571-22.857-20.571-17.714 0-26.286 13.143-26.286 39.429v49.714h102.286v58.857c0 30.286-5.143 52-15.429 66.286-14.857 19.429-34.857 29.143-60.571 29.143-26.286 0-46.286-9.714-61.143-29.143-10.857-14.286-16-36-16-66.286v-98.857c0-30.286 5.714-52.571 16.571-66.286 14.857-19.429 34.857-29.143 61.714-29.143s48 10.286 61.714 30.286c6.286 9.143 10.857 19.429 12 30.857 1.143 5.143 1.143 16.571 1.143 33.143zM451.429 650.857v120c0 26.286-7.429 39.429-24.571 39.429-16.571 0-24.571-13.143-24.571-39.429v-120c0-26.286 8-40 24.571-40 17.143 0 24.571 13.714 24.571 40zM862.286 221.714c0-65.714-0.571-136-14.857-200-10.857-45.143-47.429-78.286-91.429-82.857-105.143-12-211.429-12-317.143-12s-212 0-317.143 12c-44 4.571-81.143 37.714-91.429 82.857-14.857 64-14.857 134.286-14.857 200v0c0 66.286 0.571 136 14.857 200 10.857 45.143 47.429 78.286 92 83.429 104.571 11.429 210.857 11.429 316.571 11.429s212 0 317.143-11.429c44-5.143 81.143-38.286 91.429-83.429 14.857-64 14.857-133.714 14.857-200zM292 950.857h58.286l-69.143-228v-154.857h-57.143v154.857c-5.143 28-16.571 68-34.857 121.143-12.571 35.429-25.143 71.429-37.143 106.857h60.571l40.571-150.286zM503.429 760.571v-100c0-30.286-5.143-53.143-16-67.429-14.286-19.429-34.286-29.143-60.571-29.143-25.714 0-45.714 9.714-60 29.143-10.857 14.857-16 37.143-16 67.429v100c0 30.286 5.143 52.571 16 66.857 14.286 19.429 34.286 29.143 60 29.143 26.286 0 46.286-9.714 60.571-29.143 10.857-14.286 16-36.571 16-66.857zM694.857 853.143v-285.143h-52v31.429c-20.571-24-40-35.429-58.857-35.429-16.571 0-28.571 6.857-33.714 21.143-2.857 8.571-4.571 22.286-4.571 42.857v225.143h52v-209.714c0-12 0-18.857 0.571-20 1.143-8 5.143-12.571 12-12.571 10.286 0 21.143 8 32.571 24.571v217.714h52z" />
</font>
</defs>
</svg>
